<svg width="1440" height="1024" viewBox="0 0 1440 1024" fill="none" xmlns="http://www.w3.org/2000/svg">
<path fill-rule="evenodd" clip-rule="evenodd" d="M760.453 655.201C985.907 555.956 1096.16 411.363 1096.22 343.079C1093.98 312.964 1052.75 268.359 944.571 249.928C1131.11 208.412 1212.63 232.432 1237.76 296.944C1282.15 410.937 1124.32 584.327 881.11 679.048C754.681 728.287 650.245 750.508 535.079 738.995C608.011 726.904 681.168 690.102 760.453 655.201Z" fill="url(#paint0_linear_3_21)"/>
<path fill-rule="evenodd" clip-rule="evenodd" d="M604.526 623.522C416.085 653.312 332.073 644.477 286.86 613.996C284.168 612.181 281.826 609.93 279.743 607.441C266.417 591.518 243.72 562.237 258.467 498.931C163.029 562.377 149.692 627.63 170.775 677.181C208.029 764.736 376.591 767.763 574.445 692.772C672.459 655.622 715.382 642.175 807.612 569.749C760.67 602.571 670.814 613.043 604.526 623.522Z" fill="url(#paint1_linear_3_21)"/>
<path fill-rule="evenodd" clip-rule="evenodd" d="M770.717 248.627C475.599 339.042 398.499 478.467 402.661 523.163C405.462 553.25 414.151 578.764 467.997 608.756C407.703 613.928 314.101 610.628 296.173 543.721C264.495 425.499 477.311 262.927 695.649 210.998C827.866 179.552 1020.75 170.516 1134.14 194.535C1060.21 198.601 855.465 222.662 770.717 248.627Z" fill="url(#paint2_linear_3_21)"/>
<path d="M610.897 505.167L610.905 505.177C622.048 518.988 637.97 525.852 658.518 525.852C676.265 525.852 690.608 520.551 701.441 509.876C712.303 499.171 717.659 483.65 717.659 463.482V462.482H716.659H687.819H686.819V463.482C686.819 475.198 684.307 483.93 679.438 489.834C674.576 495.577 667.95 498.473 659.441 498.473C648.685 498.473 640.631 494.244 635.137 485.786C629.741 477.088 626.987 464.767 626.987 448.716V437.18C626.987 421.12 629.668 408.873 634.913 400.329C640.263 391.713 648.088 387.423 658.518 387.423C666.86 387.423 673.328 390.385 678.04 396.276L678.045 396.282L678.05 396.288C682.921 402.192 685.435 410.925 685.435 422.645V423.645H686.435H716.659H717.659V422.645C717.659 402.022 712.229 386.338 701.202 375.782C690.371 365.266 676.109 360.044 658.518 360.044C637.966 360.044 622.043 366.987 610.901 380.954L610.9 380.955C599.932 394.744 594.533 415.467 594.533 442.948C594.533 470.43 599.932 491.226 610.897 505.167ZM729.096 362.813H728.096V363.813V522.084V523.084H729.096H831.303H832.303V522.084V495.782V494.782H831.303H759.628V455.253H819.767H820.767V454.253V427.951V426.951H819.767H759.628V391.114H829.919H830.919V390.114V363.813V362.813H829.919H729.096ZM866.179 520.222L866.186 520.226L866.193 520.229C874.639 523.982 883.931 525.852 894.055 525.852C911.58 525.852 925.444 521.82 935.522 513.631L935.523 513.63C945.828 505.227 950.888 492.126 950.888 474.556C950.888 464.112 948.628 455.585 944.013 449.061C939.47 442.637 934.039 437.903 927.716 434.897C921.503 431.791 913.379 428.622 903.36 425.385L903.35 425.382C896.445 423.234 891.023 421.323 887.068 419.65C883.335 418.007 880.221 415.851 877.709 413.191C875.293 410.633 874.059 407.352 874.059 403.265C874.059 398.647 875.844 394.935 879.452 392.049L879.456 392.046C883.224 389.002 888.436 387.423 895.208 387.423C901.606 387.423 906.555 389.349 910.176 393.114L910.183 393.121L910.19 393.128C913.804 396.743 915.665 401.77 915.665 408.341V410.417V411.417H916.665H946.888H947.888V410.417V407.649C947.888 391.898 942.967 379.961 932.983 372.033C923.231 364.015 910.688 360.044 895.439 360.044C885.633 360.044 876.657 361.756 868.524 365.196C860.361 368.494 853.824 373.609 848.942 380.536C844.034 387.347 841.605 395.634 841.605 405.341C841.605 415.923 843.705 424.518 847.999 431.039L848.004 431.046L848.008 431.053C852.397 437.479 857.67 442.291 863.836 445.453C869.901 448.563 877.8 451.658 887.516 454.743C894.883 457.198 900.531 459.337 904.479 461.16L904.486 461.163L904.492 461.166C908.508 462.95 911.841 465.471 914.507 468.729L914.514 468.738L914.521 468.747C917.101 471.757 918.433 475.738 918.433 480.785C918.433 485.723 916.56 489.92 912.758 493.431C909.177 496.725 903.475 498.473 895.439 498.473C887.635 498.473 881.69 496.304 877.464 492.082C873.228 487.697 871.066 481.824 871.06 474.356L871.289 470.696L871.355 469.634H870.291H839.606H838.65L838.607 470.588L838.376 475.664L838.375 475.687V475.71C838.375 486.33 840.876 495.453 845.926 503.027C850.953 510.569 857.712 516.302 866.179 520.222Z" fill="#FE0D10" stroke="#FE0D10" stroke-width="2"/>
<path d="M506.39 816.488H503.53C503.75 811.501 502.797 807.908 500.67 805.708C498.617 803.508 495.83 802.408 492.31 802.408C490.623 802.408 488.973 802.664 487.36 803.178C485.82 803.691 484.427 804.461 483.18 805.488C481.933 806.441 480.943 807.688 480.21 809.228C479.477 810.768 479.11 812.601 479.11 814.728C479.11 816.488 479.44 818.101 480.1 819.568C480.833 821.034 481.86 822.574 483.18 824.188C484.5 825.728 486.077 827.414 487.91 829.248C489.817 831.008 491.943 833.098 494.29 835.518C496.637 837.791 498.47 839.918 499.79 841.898C501.11 843.878 502.1 845.748 502.76 847.508C503.493 849.268 503.933 850.991 504.08 852.678C504.3 854.364 504.41 856.088 504.41 857.848C504.41 860.048 503.86 862.358 502.76 864.778C501.66 867.124 500.01 869.324 497.81 871.378C495.61 873.431 492.86 875.118 489.56 876.438C486.333 877.758 482.557 878.418 478.23 878.418C474.05 878.418 470.42 878.088 467.34 877.428C464.333 876.768 461.51 875.888 458.87 874.788C458.43 874.494 458.283 873.981 458.43 873.248L461.51 857.408H464.37C464.077 860.488 464.223 863.128 464.81 865.328C465.47 867.528 466.46 869.324 467.78 870.718C469.1 872.038 470.677 873.028 472.51 873.688C474.343 874.274 476.287 874.568 478.34 874.568C480.1 874.568 481.897 874.238 483.73 873.578C485.563 872.918 487.213 871.964 488.68 870.718C490.147 869.398 491.357 867.821 492.31 865.988C493.263 864.081 493.74 861.918 493.74 859.498C493.74 856.858 492.713 853.814 490.66 850.368C488.607 846.848 485.6 843.401 481.64 840.028C477.24 836.141 474.05 832.584 472.07 829.358C470.09 826.058 469.1 822.831 469.1 819.678C469.1 816.818 469.76 814.104 471.08 811.538C472.473 808.971 474.233 806.771 476.36 804.938C478.56 803.031 481.017 801.528 483.73 800.428C486.517 799.328 489.303 798.778 492.09 798.778C494.657 798.778 497.333 798.924 500.12 799.218C502.907 799.438 505.657 799.951 508.37 800.758C508.737 800.904 508.957 801.124 509.03 801.418C509.177 801.711 509.213 802.004 509.14 802.298L506.39 816.488ZM532.949 811.868C530.969 811.868 529.539 811.134 528.659 809.668C527.779 808.128 527.449 806.441 527.669 804.608C527.889 802.848 528.622 801.234 529.869 799.768C531.116 798.228 532.876 797.458 535.149 797.458C537.276 797.458 538.779 798.228 539.659 799.768C540.539 801.234 540.832 802.848 540.539 804.608C540.246 806.441 539.439 808.128 538.119 809.668C536.799 811.134 535.076 811.868 532.949 811.868ZM515.789 828.478L535.589 820.778C536.689 820.924 537.239 821.438 537.239 822.318C537.312 823.198 537.202 824.261 536.909 825.508L528.439 863.898C528.072 865.658 527.926 867.051 527.999 868.078C528.072 869.031 528.512 869.508 529.319 869.508C529.686 869.508 530.126 869.434 530.639 869.288C531.226 869.068 531.776 868.848 532.289 868.628L537.349 866.098L538.339 868.518L519.969 878.418C518.942 878.051 518.209 877.538 517.769 876.878C517.402 876.218 517.146 875.558 516.999 874.898C516.779 874.091 516.742 873.101 516.889 871.928C517.109 870.681 517.512 868.774 518.099 866.208L525.469 832.878C525.762 831.924 525.909 830.934 525.909 829.908C525.982 828.881 525.396 828.368 524.149 828.368C523.636 828.368 523.159 828.441 522.719 828.588C522.279 828.734 521.802 828.881 521.289 829.028L516.449 830.568L515.789 828.478ZM556.368 832.878C556.588 831.924 556.698 830.934 556.698 829.908C556.771 828.881 556.184 828.368 554.938 828.368C554.498 828.368 554.021 828.441 553.508 828.588C553.068 828.734 552.591 828.881 552.078 829.028L547.238 830.568L546.578 828.478L566.488 820.778C567.514 820.924 568.028 821.438 568.028 822.318C568.101 823.198 567.991 824.261 567.698 825.508L563.188 845.088L563.408 845.308C564.948 842.741 566.928 840.028 569.348 837.168C571.841 834.308 574.518 831.668 577.378 829.248C580.238 826.828 583.134 824.811 586.068 823.198C589.074 821.584 591.861 820.778 594.428 820.778C595.821 820.778 596.994 820.998 597.948 821.438C598.974 821.804 599.744 822.464 600.258 823.418C600.771 824.371 601.028 825.691 601.028 827.378C601.028 828.991 600.698 831.044 600.038 833.538L592.338 864.118C591.971 865.804 591.824 867.124 591.898 868.078C592.044 869.031 592.521 869.508 593.328 869.508C593.694 869.508 594.134 869.434 594.648 869.288C595.234 869.068 595.748 868.848 596.188 868.628L601.358 866.098L602.238 868.518L583.868 878.418C582.841 878.051 582.108 877.538 581.668 876.878C581.301 876.218 581.044 875.558 580.898 874.898C580.751 874.091 580.751 873.101 580.898 871.928C581.118 870.681 581.558 868.774 582.218 866.208L589.258 838.488C589.551 837.241 589.844 835.994 590.138 834.748C590.431 833.428 590.578 832.254 590.578 831.228C590.651 830.128 590.468 829.248 590.028 828.588C589.588 827.854 588.818 827.488 587.718 827.488C585.371 827.488 582.731 828.551 579.798 830.678C576.864 832.731 573.968 835.591 571.108 839.258C568.321 842.924 565.754 847.324 563.408 852.458C561.061 857.518 559.301 863.018 558.128 868.958L556.368 877.098H546.578L556.368 832.878ZM648.132 831.778C647.105 830.238 645.822 828.771 644.282 827.378C642.815 825.984 641.092 825.288 639.112 825.288C635.959 825.288 633.099 826.314 630.532 828.368C627.965 830.348 625.765 832.878 623.932 835.958C622.172 838.964 620.815 842.301 619.862 845.968C618.909 849.561 618.432 852.971 618.432 856.198C618.432 857.958 618.579 859.754 618.872 861.588C619.239 863.348 619.825 864.998 620.632 866.538C621.439 868.004 622.539 869.214 623.932 870.168C625.325 871.048 627.049 871.488 629.102 871.488C631.522 871.488 634.199 870.754 637.132 869.288C640.065 867.748 642.889 865.988 645.602 864.008L646.922 866.648L635.372 873.798C632.805 875.411 630.495 876.584 628.442 877.318C626.462 878.051 624.885 878.418 623.712 878.418C620.852 878.418 618.432 877.794 616.452 876.548C614.545 875.301 613.042 873.688 611.942 871.708C610.842 869.728 610.072 867.564 609.632 865.218C609.265 862.798 609.155 860.451 609.302 858.178C609.302 857.738 609.412 856.308 609.632 853.888C609.852 851.394 610.585 848.498 611.832 845.198C613.152 841.824 615.132 838.341 617.772 834.748C620.412 831.154 624.152 828.001 628.992 825.288C631.485 823.894 633.942 822.794 636.362 821.988C638.782 821.181 640.872 820.778 642.632 820.778C644.465 820.778 646.372 820.998 648.352 821.438C650.405 821.804 651.982 822.391 653.082 823.198L651.542 830.348L648.132 831.778ZM666.821 845.418C671.661 846.298 675.584 846.224 678.591 845.198C681.671 844.171 684.091 842.704 685.851 840.798C687.611 838.891 688.784 836.801 689.371 834.528C690.031 832.181 690.361 830.201 690.361 828.588C690.361 827.048 689.957 825.801 689.151 824.848C688.344 823.894 687.537 823.418 686.731 823.418C684.604 823.418 682.441 824.188 680.241 825.728C678.041 827.268 675.987 829.174 674.081 831.448C672.247 833.648 670.671 836.031 669.351 838.598C668.031 841.164 667.187 843.438 666.821 845.418ZM693.331 866.648L681.671 873.798C679.104 875.411 676.757 876.584 674.631 877.318C672.504 878.051 670.524 878.418 668.691 878.418C666.051 878.418 663.851 877.758 662.091 876.438C660.404 875.044 659.084 873.358 658.131 871.378C657.177 869.324 656.517 867.124 656.151 864.778C655.784 862.431 655.601 860.231 655.601 858.178C655.601 853.631 656.517 849.158 658.351 844.758C660.257 840.284 662.751 836.288 665.831 832.768C668.984 829.174 672.614 826.278 676.721 824.078C680.901 821.878 685.227 820.778 689.701 820.778C692.707 820.778 694.871 821.621 696.191 823.308C697.584 824.921 698.281 827.378 698.281 830.678C698.281 833.391 697.437 836.031 695.751 838.598C694.137 841.164 691.864 843.328 688.931 845.088C685.997 846.848 682.551 848.058 678.591 848.718C674.704 849.378 670.487 849.158 665.941 848.058C665.281 850.918 664.951 853.741 664.951 856.528C664.951 859.314 665.317 861.844 666.051 864.118C666.857 866.318 668.031 868.114 669.571 869.508C671.111 870.828 673.091 871.488 675.511 871.488C677.931 871.488 680.571 870.754 683.431 869.288C686.364 867.748 689.187 865.988 691.901 864.008L693.331 866.648ZM766.801 862.028C766.435 864.081 766.141 865.694 765.921 866.868C765.701 867.968 765.591 869.251 765.591 870.718C765.518 871.964 766.508 872.771 768.561 873.138C770.615 873.504 773.731 873.871 777.911 874.238L777.361 877.098H739.741L740.291 874.238C744.545 873.871 747.771 873.504 749.971 873.138C752.245 872.771 753.638 871.964 754.151 870.718C754.665 869.251 755.068 867.968 755.361 866.868C755.655 865.694 755.985 864.081 756.351 862.028L766.141 815.278C766.581 813.298 766.545 811.904 766.031 811.098C765.591 810.218 764.858 809.741 763.831 809.668C762.878 809.594 761.741 809.741 760.421 810.108C759.175 810.474 757.928 810.878 756.681 811.318L751.291 813.298L750.741 809.558L780.001 798.778L766.801 862.028ZM844.925 818.908C844.925 817.148 844.669 815.314 844.155 813.408C843.642 811.501 842.872 809.778 841.845 808.238C840.819 806.624 839.535 805.304 837.995 804.278C836.455 803.178 834.622 802.628 832.495 802.628C829.855 802.628 827.399 803.288 825.125 804.608C822.852 805.854 820.872 807.614 819.185 809.888C817.572 812.161 816.289 814.801 815.335 817.808C814.382 820.814 813.905 824.078 813.905 827.598C813.905 828.551 814.052 829.871 814.345 831.558C814.639 833.244 815.225 834.894 816.105 836.508C817.059 838.048 818.379 839.404 820.065 840.578C821.752 841.751 824.025 842.338 826.885 842.338C828.352 842.338 830.112 841.934 832.165 841.128C834.219 840.321 836.162 839.001 837.995 837.168C839.902 835.334 841.515 832.951 842.835 830.018C844.229 827.011 844.925 823.308 844.925 818.908ZM798.835 873.578C804.042 873.284 808.845 872.221 813.245 870.388C817.645 868.554 821.605 866.171 825.125 863.238C828.645 860.304 831.652 856.894 834.145 853.008C836.712 849.121 838.692 844.978 840.085 840.578L839.865 840.358C837.079 842.778 834.255 844.574 831.395 845.748C828.535 846.921 825.015 847.508 820.835 847.508C817.902 847.508 815.299 846.994 813.025 845.968C810.752 844.941 808.845 843.584 807.305 841.898C805.765 840.211 804.592 838.231 803.785 835.958C802.979 833.684 802.575 831.338 802.575 828.918C802.575 824.151 803.419 819.898 805.105 816.158C806.865 812.418 809.175 809.264 812.035 806.698C814.895 804.131 818.122 802.188 821.715 800.868C825.382 799.474 829.122 798.778 832.935 798.778C836.822 798.778 840.195 799.438 843.055 800.758C845.915 802.004 848.262 803.728 850.095 805.928C852.002 808.128 853.432 810.694 854.385 813.628C855.339 816.561 855.815 819.678 855.815 822.978C855.815 827.451 855.009 831.924 853.395 836.398C851.782 840.871 849.582 845.161 846.795 849.268C844.082 853.301 840.819 857.078 837.005 860.598C833.265 864.118 829.232 867.198 824.905 869.838C820.652 872.404 816.179 874.458 811.485 875.998C806.792 877.464 802.135 878.271 797.515 878.418L798.835 873.578ZM908.089 818.908C908.089 817.148 907.833 815.314 907.319 813.408C906.806 811.501 906.036 809.778 905.009 808.238C903.983 806.624 902.699 805.304 901.159 804.278C899.619 803.178 897.786 802.628 895.659 802.628C893.019 802.628 890.563 803.288 888.289 804.608C886.016 805.854 884.036 807.614 882.349 809.888C880.736 812.161 879.453 814.801 878.499 817.808C877.546 820.814 877.069 824.078 877.069 827.598C877.069 828.551 877.216 829.871 877.509 831.558C877.803 833.244 878.389 834.894 879.269 836.508C880.223 838.048 881.543 839.404 883.229 840.578C884.916 841.751 887.189 842.338 890.049 842.338C891.516 842.338 893.276 841.934 895.329 841.128C897.383 840.321 899.326 839.001 901.159 837.168C903.066 835.334 904.679 832.951 905.999 830.018C907.393 827.011 908.089 823.308 908.089 818.908ZM861.999 873.578C867.206 873.284 872.009 872.221 876.409 870.388C880.809 868.554 884.769 866.171 888.289 863.238C891.809 860.304 894.816 856.894 897.309 853.008C899.876 849.121 901.856 844.978 903.249 840.578L903.029 840.358C900.243 842.778 897.419 844.574 894.559 845.748C891.699 846.921 888.179 847.508 883.999 847.508C881.066 847.508 878.463 846.994 876.189 845.968C873.916 844.941 872.009 843.584 870.469 841.898C868.929 840.211 867.756 838.231 866.949 835.958C866.143 833.684 865.739 831.338 865.739 828.918C865.739 824.151 866.583 819.898 868.269 816.158C870.029 812.418 872.339 809.264 875.199 806.698C878.059 804.131 881.286 802.188 884.879 800.868C888.546 799.474 892.286 798.778 896.099 798.778C899.986 798.778 903.359 799.438 906.219 800.758C909.079 802.004 911.426 803.728 913.259 805.928C915.166 808.128 916.596 810.694 917.549 813.628C918.503 816.561 918.979 819.678 918.979 822.978C918.979 827.451 918.173 831.924 916.559 836.398C914.946 840.871 912.746 845.161 909.959 849.268C907.246 853.301 903.983 857.078 900.169 860.598C896.429 864.118 892.396 867.198 888.069 869.838C883.816 872.404 879.343 874.458 874.649 875.998C869.956 877.464 865.299 878.271 860.679 878.418L861.999 873.578ZM958.933 832.108C960.253 831.521 961.647 830.641 963.113 829.468C964.653 828.294 966.047 826.901 967.293 825.288C968.613 823.674 969.677 821.951 970.483 820.118C971.363 818.211 971.803 816.268 971.803 814.288C971.803 813.114 971.62 811.831 971.253 810.438C970.96 809.044 970.373 807.724 969.493 806.478C968.613 805.231 967.44 804.204 965.973 803.398C964.507 802.518 962.673 802.078 960.473 802.078C955.633 802.078 951.783 803.434 948.923 806.148C946.137 808.861 944.743 812.344 944.743 816.598C944.743 819.898 945.99 822.831 948.483 825.398C951.05 827.891 954.533 830.128 958.933 832.108ZM961.463 834.198C963.443 835.224 965.313 836.434 967.073 837.828C968.907 839.221 970.483 840.798 971.803 842.558C973.197 844.244 974.26 846.041 974.993 847.948C975.8 849.854 976.203 851.798 976.203 853.778C976.203 857.664 975.287 861.148 973.453 864.228C971.62 867.234 969.273 869.801 966.413 871.928C963.553 874.054 960.4 875.668 956.953 876.768C953.507 877.868 950.17 878.418 946.943 878.418C942.763 878.418 939.17 877.904 936.163 876.878C933.23 875.851 930.81 874.531 928.903 872.918C927.07 871.231 925.713 869.324 924.833 867.198C923.953 865.071 923.513 862.944 923.513 860.818C923.513 857.078 924.247 853.888 925.713 851.248C927.253 848.534 929.087 846.224 931.213 844.318C933.413 842.411 935.723 840.871 938.143 839.698C940.637 838.451 942.8 837.498 944.633 836.838C940.453 834.564 937.52 831.924 935.833 828.918C934.22 825.911 933.413 823.088 933.413 820.448C933.413 817.001 934.147 813.958 935.613 811.318C937.153 808.604 939.17 806.331 941.663 804.498C944.23 802.591 947.127 801.161 950.353 800.208C953.653 799.254 957.027 798.778 960.473 798.778C967.073 798.778 972.023 800.098 975.323 802.738C978.697 805.378 980.383 808.898 980.383 813.298C980.383 816.598 979.65 819.458 978.183 821.878C976.79 824.224 975.067 826.241 973.013 827.928C971.033 829.614 968.943 830.971 966.743 831.998C964.617 833.024 962.857 833.758 961.463 834.198ZM947.383 838.818C945.623 839.698 943.9 840.798 942.213 842.118C940.527 843.438 939.023 844.978 937.703 846.738C936.383 848.498 935.32 850.551 934.513 852.898C933.707 855.171 933.303 857.738 933.303 860.598C933.303 862.358 933.597 864.081 934.183 865.768C934.843 867.454 935.76 868.958 936.933 870.278C938.18 871.598 939.647 872.661 941.333 873.468C943.093 874.201 945.073 874.568 947.273 874.568C949.327 874.568 951.38 874.274 953.433 873.688C955.56 873.028 957.467 872.038 959.153 870.718C960.84 869.398 962.197 867.711 963.223 865.658C964.323 863.531 964.873 861.001 964.873 858.068C964.873 855.794 964.323 853.741 963.223 851.908C962.197 850.074 960.84 848.388 959.153 846.848C957.54 845.308 955.67 843.878 953.543 842.558C951.49 841.238 949.437 839.991 947.383 838.818Z" fill="black"/>
<path d="M506.39 816.488V817.488H507.215L507.372 816.678L506.39 816.488ZM503.53 816.488L502.531 816.444L502.485 817.488H503.53V816.488ZM500.67 805.708L499.939 806.39L499.945 806.396L499.951 806.403L500.67 805.708ZM487.36 803.178L487.057 802.225L487.044 802.229L487.36 803.178ZM483.18 805.488L483.787 806.282L483.802 806.271L483.816 806.26L483.18 805.488ZM480.21 809.228L479.307 808.798L479.307 808.798L480.21 809.228ZM480.1 819.568L479.188 819.978L479.196 819.997L479.206 820.015L480.1 819.568ZM483.18 824.188L482.406 824.821L482.413 824.83L482.421 824.838L483.18 824.188ZM487.91 829.248L487.203 829.955L487.217 829.969L487.232 829.982L487.91 829.248ZM494.29 835.518L493.572 836.214L493.583 836.225L493.594 836.236L494.29 835.518ZM499.79 841.898L500.622 841.343L500.622 841.343L499.79 841.898ZM502.76 847.508L501.824 847.859L501.83 847.876L501.837 847.892L502.76 847.508ZM504.08 852.678L503.084 852.764L503.086 852.786L503.088 852.807L504.08 852.678ZM502.76 864.778L503.666 865.202L503.67 865.191L502.76 864.778ZM497.81 871.378L498.492 872.109L498.492 872.109L497.81 871.378ZM489.56 876.438L489.189 875.509L489.181 875.512L489.56 876.438ZM467.34 877.428L467.126 878.404L467.13 878.405L467.34 877.428ZM458.87 874.788L458.315 875.62L458.396 875.673L458.485 875.711L458.87 874.788ZM458.43 873.248L459.411 873.444L459.412 873.439L458.43 873.248ZM461.51 857.408V856.408H460.686L460.528 857.217L461.51 857.408ZM464.37 857.408L465.365 857.502L465.47 856.408H464.37V857.408ZM464.81 865.328L463.844 865.585L463.848 865.6L463.852 865.615L464.81 865.328ZM467.78 870.718L467.054 871.405L467.063 871.415L467.073 871.425L467.78 870.718ZM472.51 873.688L472.171 874.629L472.188 874.635L472.205 874.64L472.51 873.688ZM483.73 873.578L484.069 874.519L484.069 874.519L483.73 873.578ZM488.68 870.718L489.328 871.48L489.338 871.47L489.349 871.461L488.68 870.718ZM492.31 865.988L493.197 866.449L493.201 866.442L493.204 866.435L492.31 865.988ZM490.66 850.368L489.796 850.872L489.801 850.879L490.66 850.368ZM481.64 840.028L480.978 840.777L480.985 840.783L480.992 840.789L481.64 840.028ZM472.07 829.358L471.212 829.872L471.218 829.881L472.07 829.358ZM471.08 811.538L470.201 811.061L470.196 811.07L470.191 811.08L471.08 811.538ZM476.36 804.938L477.013 805.695L477.015 805.693L476.36 804.938ZM483.73 800.428L483.363 799.497L483.354 799.501L483.73 800.428ZM500.12 799.218L500.015 800.212L500.028 800.214L500.041 800.215L500.12 799.218ZM508.37 800.758L508.741 799.829L508.699 799.812L508.655 799.799L508.37 800.758ZM509.03 801.418L508.06 801.66L508.086 801.767L508.136 801.865L509.03 801.418ZM509.14 802.298L508.17 802.055L508.163 802.081L508.158 802.107L509.14 802.298ZM506.39 815.488H503.53V817.488H506.39V815.488ZM504.529 816.532C504.754 811.437 503.798 807.504 501.389 805.013L499.951 806.403C501.796 808.311 502.746 811.565 502.531 816.444L504.529 816.532ZM501.401 805.025C499.126 802.588 496.056 801.408 492.31 801.408V803.408C495.604 803.408 498.107 804.427 499.939 806.39L501.401 805.025ZM492.31 801.408C490.52 801.408 488.768 801.68 487.057 802.225L487.663 804.131C489.179 803.648 490.727 803.408 492.31 803.408V801.408ZM487.044 802.229C485.388 802.781 483.886 803.611 482.544 804.716L483.816 806.26C484.967 805.311 486.252 804.601 487.676 804.126L487.044 802.229ZM482.573 804.693C481.189 805.751 480.103 807.127 479.307 808.798L481.113 809.658C481.784 808.248 482.677 807.131 483.787 806.282L482.573 804.693ZM479.307 808.798C478.496 810.501 478.11 812.488 478.11 814.728H480.11C480.11 812.714 480.457 811.034 481.113 809.658L479.307 808.798ZM478.11 814.728C478.11 816.616 478.465 818.371 479.188 819.978L481.012 819.157C480.415 817.831 480.11 816.36 480.11 814.728H478.11ZM479.206 820.015C479.98 821.563 481.051 823.165 482.406 824.821L483.954 823.554C482.669 821.984 481.687 820.506 480.994 819.12L479.206 820.015ZM482.421 824.838C483.761 826.402 485.356 828.108 487.203 829.955L488.617 828.541C486.797 826.721 485.239 825.053 483.939 823.537L482.421 824.838ZM487.232 829.982C489.122 831.727 491.235 833.803 493.572 836.214L495.008 834.822C492.652 832.392 490.512 830.288 488.588 828.513L487.232 829.982ZM493.594 836.236C495.907 838.477 497.689 840.549 498.958 842.452L500.622 841.343C499.251 839.286 497.366 837.105 494.986 834.799L493.594 836.236ZM498.958 842.452C500.246 844.385 501.197 846.186 501.824 847.859L503.696 847.157C503.003 845.309 501.974 843.371 500.622 841.343L498.958 842.452ZM501.837 847.892C502.536 849.569 502.947 851.192 503.084 852.764L505.076 852.591C504.92 850.79 504.451 848.966 503.683 847.123L501.837 847.892ZM503.088 852.807C503.303 854.449 503.41 856.129 503.41 857.848H505.41C505.41 856.046 505.297 854.279 505.072 852.548L503.088 852.807ZM503.41 857.848C503.41 859.878 502.903 862.047 501.85 864.364L503.67 865.191C504.817 862.668 505.41 860.217 505.41 857.848H503.41ZM501.855 864.353C500.817 866.567 499.249 868.666 497.128 870.647L498.492 872.109C500.771 869.982 502.503 867.681 503.665 865.202L501.855 864.353ZM497.128 870.647C495.033 872.602 492.394 874.227 489.189 875.509L489.931 877.366C493.326 876.008 496.187 874.26 498.492 872.109L497.128 870.647ZM489.181 875.512C486.1 876.773 482.457 877.418 478.23 877.418V879.418C482.656 879.418 486.567 878.743 489.939 877.363L489.181 875.512ZM478.23 877.418C474.099 877.418 470.543 877.091 467.55 876.45L467.13 878.405C470.297 879.084 474.001 879.418 478.23 879.418V877.418ZM467.554 876.451C464.602 875.803 461.836 874.94 459.255 873.865L458.485 875.711C461.184 876.835 464.065 877.733 467.126 878.404L467.554 876.451ZM459.425 873.956C459.415 873.949 459.41 873.945 459.407 873.942C459.405 873.94 459.404 873.939 459.404 873.938C459.403 873.938 459.402 873.936 459.4 873.932C459.398 873.928 459.395 873.921 459.392 873.908C459.376 873.853 459.357 873.713 459.411 873.444L457.449 873.052C457.262 873.987 457.399 875.009 458.315 875.62L459.425 873.956ZM459.412 873.439L462.492 857.599L460.528 857.217L457.448 873.057L459.412 873.439ZM461.51 858.408H464.37V856.408H461.51V858.408ZM463.375 857.313C463.074 860.471 463.218 863.237 463.844 865.585L465.776 865.07C465.229 863.018 465.08 860.504 465.365 857.502L463.375 857.313ZM463.852 865.615C464.548 867.936 465.607 869.878 467.054 871.405L468.506 870.03C467.313 868.77 466.392 867.12 465.768 865.04L463.852 865.615ZM467.073 871.425C468.502 872.853 470.206 873.921 472.171 874.629L472.849 872.747C471.148 872.134 469.698 871.222 468.487 870.011L467.073 871.425ZM472.205 874.64C474.143 875.26 476.19 875.568 478.34 875.568V873.568C476.383 873.568 474.543 873.288 472.815 872.735L472.205 874.64ZM478.34 875.568C480.227 875.568 482.138 875.213 484.069 874.519L483.391 872.637C481.655 873.262 479.973 873.568 478.34 873.568V875.568ZM484.069 874.519C486.014 873.818 487.768 872.805 489.328 871.48L488.032 869.956C486.658 871.124 485.113 872.017 483.391 872.637L484.069 874.519ZM489.349 871.461C490.909 870.057 492.191 868.384 493.197 866.449L491.423 865.526C490.522 867.258 489.384 868.738 488.011 869.974L489.349 871.461ZM493.204 866.435C494.236 864.372 494.74 862.052 494.74 859.498H492.74C492.74 861.784 492.291 863.79 491.416 865.54L493.204 866.435ZM494.74 859.498C494.74 856.607 493.62 853.383 491.519 849.856L489.801 850.879C491.806 854.246 492.74 857.108 492.74 859.498H494.74ZM491.524 849.864C489.4 846.224 486.312 842.694 482.288 839.266L480.992 840.789C484.888 844.108 487.813 847.472 489.796 850.872L491.524 849.864ZM482.302 839.278C477.94 835.425 474.83 831.944 472.922 828.835L471.218 829.881C473.27 833.225 476.54 836.857 480.978 840.777L482.302 839.278ZM472.927 828.843C471.02 825.664 470.1 822.614 470.1 819.678H468.1C468.1 823.048 469.16 826.451 471.213 829.872L472.927 828.843ZM470.1 819.678C470.1 816.978 470.721 814.422 471.969 811.995L470.191 811.08C468.799 813.787 468.1 816.657 468.1 819.678H470.1ZM471.959 812.015C473.297 809.55 474.982 807.446 477.013 805.695L475.707 804.18C473.485 806.096 471.65 808.392 470.201 811.061L471.959 812.015ZM477.015 805.693C479.131 803.859 481.494 802.413 484.106 801.354L483.354 799.501C480.54 800.642 477.989 802.203 475.705 804.182L477.015 805.693ZM484.097 801.358C486.776 800.3 489.438 799.778 492.09 799.778V797.778C489.168 797.778 486.258 798.355 483.363 799.497L484.097 801.358ZM492.09 799.778C494.619 799.778 497.26 799.922 500.015 800.212L500.225 798.223C497.406 797.926 494.695 797.778 492.09 797.778V799.778ZM500.041 800.215C502.757 800.429 505.438 800.929 508.085 801.716L508.655 799.799C505.875 798.973 503.056 798.446 500.199 798.221L500.041 800.215ZM507.999 801.686C508.089 801.722 508.111 801.748 508.103 801.74C508.098 801.735 508.089 801.724 508.079 801.708C508.069 801.69 508.063 801.674 508.06 801.66L510 801.175C509.826 800.478 509.306 800.055 508.741 799.829L507.999 801.686ZM508.136 801.865C508.185 801.964 508.18 802.014 508.17 802.055L510.11 802.54C510.246 801.995 510.168 801.458 509.924 800.97L508.136 801.865ZM508.158 802.107L505.408 816.297L507.372 816.678L510.122 802.488L508.158 802.107ZM528.659 809.668L527.791 810.164L527.796 810.173L527.801 810.182L528.659 809.668ZM527.669 804.608L526.677 804.484L526.676 804.489L527.669 804.608ZM529.869 799.768L530.631 800.415L530.639 800.406L530.646 800.397L529.869 799.768ZM539.659 799.768L538.791 800.264L538.796 800.273L538.801 800.282L539.659 799.768ZM540.539 804.608L539.553 804.443L539.552 804.45L540.539 804.608ZM538.119 809.668L538.862 810.337L538.87 810.328L538.878 810.318L538.119 809.668ZM515.789 828.478L515.427 827.546L514.553 827.885L514.835 828.779L515.789 828.478ZM535.589 820.778L535.721 819.786L535.466 819.752L535.227 819.846L535.589 820.778ZM537.239 822.318H536.239V822.359L536.242 822.401L537.239 822.318ZM536.909 825.508L535.935 825.279L535.932 825.292L536.909 825.508ZM528.439 863.898L527.462 863.682L527.46 863.694L528.439 863.898ZM527.999 868.078L527.002 868.149L527.002 868.154L527.999 868.078ZM530.639 869.288L530.914 870.249L530.952 870.238L530.99 870.224L530.639 869.288ZM532.289 868.628L532.683 869.547L532.71 869.535L532.736 869.522L532.289 868.628ZM537.349 866.098L538.275 865.719L537.866 864.721L536.902 865.203L537.349 866.098ZM538.339 868.518L538.813 869.398L539.605 868.971L539.265 868.139L538.339 868.518ZM519.969 878.418L519.633 879.359L520.052 879.509L520.443 879.298L519.969 878.418ZM517.769 876.878L516.895 877.363L516.914 877.399L516.937 877.432L517.769 876.878ZM516.999 874.898L517.975 874.681L517.97 874.657L517.964 874.635L516.999 874.898ZM516.889 871.928L515.904 871.754L515.9 871.779L515.897 871.804L516.889 871.928ZM518.099 866.208L519.074 866.43L519.075 866.424L518.099 866.208ZM525.469 832.878L524.513 832.584L524.501 832.622L524.493 832.662L525.469 832.878ZM525.909 829.908L524.912 829.836L524.909 829.872V829.908H525.909ZM522.719 828.588L522.403 827.639L522.403 827.639L522.719 828.588ZM521.289 829.028L521.014 828.066L521 828.07L520.986 828.075L521.289 829.028ZM516.449 830.568L515.495 830.869L515.797 831.824L516.752 831.521L516.449 830.568ZM532.949 810.868C531.255 810.868 530.184 810.266 529.516 809.153L527.801 810.182C528.894 812.002 530.683 812.868 532.949 812.868V810.868ZM529.527 809.172C528.758 807.826 528.466 806.356 528.662 804.727L526.676 804.489C526.432 806.526 526.8 808.429 527.791 810.164L529.527 809.172ZM528.661 804.732C528.855 803.181 529.499 801.747 530.631 800.415L529.107 799.12C527.745 800.722 526.923 802.514 526.677 804.484L528.661 804.732ZM530.646 800.397C531.674 799.128 533.127 798.458 535.149 798.458V796.458C532.624 796.458 530.558 797.328 529.092 799.138L530.646 800.397ZM535.149 798.458C537.001 798.458 538.127 799.102 538.791 800.264L540.527 799.272C539.431 797.353 537.55 796.458 535.149 796.458V798.458ZM538.801 800.282C539.554 801.536 539.809 802.907 539.553 804.443L541.525 804.772C541.856 802.789 541.524 800.933 540.516 799.253L538.801 800.282ZM539.552 804.45C539.29 806.084 538.571 807.604 537.36 809.017L538.878 810.318C540.307 808.652 541.201 806.798 541.526 804.766L539.552 804.45ZM537.376 808.999C536.261 810.237 534.817 810.868 532.949 810.868V812.868C535.334 812.868 537.337 812.032 538.862 810.337L537.376 808.999ZM516.151 829.41L535.951 821.71L535.227 819.846L515.427 827.546L516.151 829.41ZM535.457 821.769C535.894 821.827 536.078 821.942 536.144 822.004C536.182 822.039 536.239 822.104 536.239 822.318H538.239C538.239 821.652 538.021 821.02 537.509 820.542C537.025 820.09 536.384 819.875 535.721 819.786L535.457 821.769ZM536.242 822.401C536.304 823.141 536.215 824.092 535.936 825.279L537.882 825.737C538.19 824.43 538.321 823.255 538.236 822.235L536.242 822.401ZM535.932 825.292L527.462 863.682L529.416 864.113L537.886 825.723L535.932 825.292ZM527.46 863.694C527.086 865.488 526.918 866.986 527.002 868.149L528.996 868.006C528.933 867.116 529.058 865.828 529.418 864.102L527.46 863.694ZM527.002 868.154C527.048 868.753 527.219 869.363 527.649 869.828C528.103 870.32 528.709 870.508 529.319 870.508V868.508C529.215 868.508 529.161 868.492 529.14 868.484C529.124 868.478 529.121 868.475 529.119 868.472C529.109 868.461 529.023 868.356 528.996 868.001L527.002 868.154ZM529.319 870.508C529.81 870.508 530.348 870.411 530.914 870.249L530.364 868.326C529.903 868.458 529.561 868.508 529.319 868.508V870.508ZM530.99 870.224C531.589 869.999 532.154 869.774 532.683 869.547L531.895 867.709C531.397 867.922 530.862 868.136 530.288 868.351L530.99 870.224ZM532.736 869.522L537.796 866.992L536.902 865.203L531.842 867.733L532.736 869.522ZM536.423 866.476L537.413 868.896L539.265 868.139L538.275 865.719L536.423 866.476ZM537.865 867.637L519.495 877.537L520.443 879.298L538.813 869.398L537.865 867.637ZM520.305 877.476C519.407 877.155 518.884 876.748 518.601 876.323L516.937 877.432C517.534 878.327 518.478 878.947 519.633 879.359L520.305 877.476ZM518.643 876.392C518.318 875.807 518.099 875.236 517.975 874.681L516.023 875.115C516.193 875.879 516.487 876.629 516.895 877.363L518.643 876.392ZM517.964 874.635C517.789 873.995 517.745 873.145 517.881 872.052L515.897 871.804C515.74 873.057 515.769 874.187 516.034 875.161L517.964 874.635ZM517.874 872.101C518.089 870.881 518.488 868.994 519.074 866.43L517.124 865.985C516.537 868.554 516.129 870.481 515.904 871.754L517.874 872.101ZM519.075 866.424L526.445 833.094L524.493 832.662L517.123 865.992L519.075 866.424ZM526.425 833.172C526.748 832.12 526.909 831.031 526.909 829.908H524.909C524.909 830.838 524.776 831.728 524.513 832.584L526.425 833.172ZM526.906 829.979C526.958 829.262 526.783 828.526 526.182 828C525.625 827.512 524.877 827.368 524.149 827.368V829.368C524.667 829.368 524.836 829.48 524.865 829.505C524.873 829.512 524.881 829.519 524.892 829.55C524.905 829.589 524.923 829.677 524.912 829.836L526.906 829.979ZM524.149 827.368C523.54 827.368 522.955 827.455 522.403 827.639L523.035 829.536C523.363 829.427 523.732 829.368 524.149 829.368V827.368ZM522.403 827.639C521.978 827.78 521.516 827.923 521.014 828.066L521.564 829.989C522.089 829.839 522.58 829.688 523.035 829.536L522.403 827.639ZM520.986 828.075L516.146 829.615L516.752 831.521L521.592 829.981L520.986 828.075ZM517.403 830.267L516.743 828.177L514.835 828.779L515.495 830.869L517.403 830.267ZM556.368 832.878L555.393 832.653L555.391 832.661L556.368 832.878ZM556.698 829.908L555.7 829.836L555.698 829.872V829.908H556.698ZM553.508 828.588L553.233 827.626L553.212 827.632L553.192 827.639L553.508 828.588ZM552.078 829.028L551.803 828.066L551.789 828.07L551.775 828.075L552.078 829.028ZM547.238 830.568L546.284 830.869L546.586 831.824L547.541 831.521L547.238 830.568ZM546.578 828.478L546.217 827.545L545.342 827.884L545.624 828.779L546.578 828.478ZM566.488 820.778L566.629 819.788L566.371 819.751L566.127 819.845L566.488 820.778ZM568.028 822.318H567.028V822.359L567.031 822.401L568.028 822.318ZM567.698 825.508L566.724 825.279L566.723 825.283L567.698 825.508ZM563.188 845.088L562.213 844.863L562.089 845.403L562.481 845.795L563.188 845.088ZM563.408 845.308L562.701 846.015L563.606 846.92L564.265 845.822L563.408 845.308ZM569.348 837.168L568.594 836.511L568.589 836.516L568.584 836.522L569.348 837.168ZM577.378 829.248L576.732 828.484L576.732 828.484L577.378 829.248ZM586.068 823.198L585.595 822.316L585.586 822.321L586.068 823.198ZM597.948 821.438L597.529 822.346L597.569 822.364L597.611 822.379L597.948 821.438ZM600.258 823.418L601.138 822.944L601.138 822.944L600.258 823.418ZM600.038 833.538L599.071 833.282L599.068 833.293L600.038 833.538ZM592.338 864.118L591.368 863.873L591.364 863.889L591.361 863.905L592.338 864.118ZM591.898 868.078L590.901 868.154L590.904 868.192L590.909 868.23L591.898 868.078ZM594.648 869.288L594.923 870.249L594.961 870.238L594.999 870.224L594.648 869.288ZM596.188 868.628L595.748 867.729L595.741 867.733L596.188 868.628ZM601.358 866.098L602.298 865.756L601.917 864.71L600.918 865.199L601.358 866.098ZM602.238 868.518L602.712 869.398L603.473 868.988L603.178 868.176L602.238 868.518ZM583.868 878.418L583.531 879.359L583.951 879.509L584.342 879.298L583.868 878.418ZM581.668 876.878L580.794 877.363L580.813 877.399L580.836 877.432L581.668 876.878ZM580.898 874.898L579.914 875.077L579.917 875.096L579.922 875.115L580.898 874.898ZM580.898 871.928L579.913 871.754L579.909 871.779L579.906 871.804L580.898 871.928ZM582.218 866.208L583.186 866.457L583.187 866.454L582.218 866.208ZM589.258 838.488L590.227 838.734L590.229 838.725L590.231 838.717L589.258 838.488ZM590.138 834.748L591.111 834.977L591.114 834.965L590.138 834.748ZM590.578 831.228L589.58 831.161L589.578 831.194V831.228H590.578ZM590.028 828.588L589.17 829.102L589.183 829.123L589.196 829.142L590.028 828.588ZM579.798 830.678L580.371 831.497L580.378 831.492L580.385 831.487L579.798 830.678ZM571.108 839.258L570.319 838.643L570.312 838.653L571.108 839.258ZM563.408 852.458L564.315 852.878L564.317 852.873L563.408 852.458ZM558.128 868.958L559.105 869.169L559.107 869.16L559.109 869.151L558.128 868.958ZM556.368 877.098V878.098H557.175L557.345 877.309L556.368 877.098ZM546.578 877.098L545.601 876.881L545.332 878.098H546.578V877.098ZM557.342 833.103C557.58 832.072 557.698 831.006 557.698 829.908H555.698C555.698 830.862 555.596 831.777 555.393 832.653L557.342 833.103ZM557.695 829.979C557.746 829.262 557.572 828.526 556.971 828C556.414 827.512 555.666 827.368 554.938 827.368V829.368C555.456 829.368 555.625 829.48 555.654 829.505C555.662 829.512 555.67 829.519 555.68 829.55C555.693 829.589 555.712 829.677 555.7 829.836L557.695 829.979ZM554.938 827.368C554.388 827.368 553.817 827.459 553.233 827.626L553.783 829.549C554.225 829.423 554.608 829.368 554.938 829.368V827.368ZM553.192 827.639C552.767 827.78 552.305 827.923 551.803 828.066L552.353 829.989C552.878 829.839 553.368 829.688 553.824 829.536L553.192 827.639ZM551.775 828.075L546.935 829.615L547.541 831.521L552.381 829.981L551.775 828.075ZM548.191 830.267L547.531 828.177L545.624 828.779L546.284 830.869L548.191 830.267ZM546.939 829.41L566.849 821.71L566.127 819.845L546.217 827.545L546.939 829.41ZM566.346 821.768C566.734 821.823 566.885 821.929 566.936 821.98C566.966 822.01 567.028 822.083 567.028 822.318H569.028C569.028 821.672 568.833 821.048 568.35 820.566C567.887 820.103 567.268 819.879 566.629 819.788L566.346 821.768ZM567.031 822.401C567.093 823.141 567.004 824.092 566.724 825.279L568.671 825.737C568.979 824.43 569.109 823.255 569.024 822.235L567.031 822.401ZM566.723 825.283L562.213 844.863L564.162 845.312L568.672 825.732L566.723 825.283ZM562.481 845.795L562.701 846.015L564.115 844.601L563.895 844.381L562.481 845.795ZM564.265 845.822C565.772 843.312 567.718 840.642 570.111 837.814L568.584 836.522C566.138 839.413 564.124 842.17 562.55 844.793L564.265 845.822ZM570.102 837.825C572.562 835.002 575.203 832.398 578.024 830.011L576.732 828.484C573.833 830.937 571.12 833.613 568.594 836.511L570.102 837.825ZM578.024 830.011C580.839 827.629 583.681 825.652 586.55 824.074L585.586 822.321C582.588 823.97 579.637 826.026 576.732 828.484L578.024 830.011ZM586.541 824.079C589.448 822.519 592.072 821.778 594.428 821.778V819.778C591.651 819.778 588.701 820.65 585.595 822.316L586.541 824.079ZM594.428 821.778C595.722 821.778 596.742 821.983 597.529 822.346L598.367 820.53C597.247 820.013 595.921 819.778 594.428 819.778V821.778ZM597.611 822.379C598.407 822.663 598.982 823.158 599.377 823.892L601.138 822.944C600.507 821.771 599.542 820.945 598.284 820.496L597.611 822.379ZM599.377 823.892C599.78 824.64 600.028 825.773 600.028 827.378H602.028C602.028 825.609 601.762 824.102 601.138 822.944L599.377 823.892ZM600.028 827.378C600.028 828.869 599.721 830.829 599.071 833.282L601.005 833.794C601.675 831.26 602.028 829.113 602.028 827.378H600.028ZM599.068 833.293L591.368 863.873L593.308 864.362L601.008 833.782L599.068 833.293ZM591.361 863.905C590.987 865.624 590.816 867.056 590.901 868.154L592.895 868.001C592.833 867.193 592.955 865.985 593.315 864.33L591.361 863.905ZM590.909 868.23C591.002 868.829 591.217 869.416 591.658 869.857C592.12 870.319 592.715 870.508 593.328 870.508V868.508C593.134 868.508 593.087 868.458 593.072 868.443C593.037 868.407 592.941 868.279 592.886 867.926L590.909 868.23ZM593.328 870.508C593.819 870.508 594.357 870.411 594.923 870.249L594.373 868.326C593.912 868.458 593.57 868.508 593.328 868.508V870.508ZM594.999 870.224C595.61 869.995 596.157 869.761 596.635 869.522L595.741 867.733C595.339 867.934 594.859 868.14 594.297 868.351L594.999 870.224ZM596.627 869.526L601.797 866.996L600.918 865.199L595.748 867.729L596.627 869.526ZM600.418 866.439L601.298 868.859L603.178 868.176L602.298 865.756L600.418 866.439ZM601.763 867.637L583.393 877.537L584.342 879.298L602.712 869.398L601.763 867.637ZM584.204 877.476C583.306 877.155 582.783 876.748 582.5 876.323L580.836 877.432C581.433 878.327 582.377 878.947 583.531 879.359L584.204 877.476ZM582.542 876.392C582.217 875.807 581.997 875.236 581.874 874.681L579.922 875.115C580.091 875.879 580.386 876.629 580.794 877.363L582.542 876.392ZM581.882 874.719C581.759 874.046 581.751 873.165 581.89 872.052L579.906 871.804C579.751 873.037 579.743 874.136 579.914 875.077L581.882 874.719ZM581.883 872.101C582.096 870.895 582.527 869.019 583.186 866.457L581.249 865.959C580.588 868.529 580.14 870.467 579.913 871.754L581.883 872.101ZM583.187 866.454L590.227 838.734L588.289 838.242L581.249 865.962L583.187 866.454ZM590.231 838.717C590.525 837.47 590.818 836.223 591.111 834.977L589.164 834.519C588.871 835.765 588.578 837.012 588.284 838.259L590.231 838.717ZM591.114 834.965C591.418 833.594 591.578 832.346 591.578 831.228H589.578C589.578 832.163 589.444 833.261 589.162 834.531L591.114 834.965ZM591.576 831.294C591.658 830.059 591.462 828.936 590.86 828.033L589.196 829.142C589.474 829.56 589.644 830.197 589.58 831.161L591.576 831.294ZM590.885 828.073C590.212 826.952 589.054 826.488 587.718 826.488V828.488C588.582 828.488 588.963 828.757 589.17 829.102L590.885 828.073ZM587.718 826.488C585.074 826.488 582.228 827.681 579.211 829.868L580.385 831.487C583.234 829.421 585.669 828.488 587.718 828.488V826.488ZM579.224 829.858C576.189 831.983 573.223 834.92 570.319 838.643L571.896 839.873C574.712 836.262 577.539 833.479 580.371 831.497L579.224 829.858ZM570.312 838.653C567.472 842.389 564.869 846.856 562.498 852.042L564.317 852.873C566.64 847.793 569.171 843.459 571.904 839.863L570.312 838.653ZM562.501 852.037C560.118 857.175 558.334 862.752 557.147 868.764L559.109 869.151C560.268 863.283 562.005 857.86 564.315 852.878L562.501 852.037ZM557.15 868.746L555.39 876.886L557.345 877.309L559.105 869.169L557.15 868.746ZM556.368 876.098H546.578V878.098H556.368V876.098ZM547.554 877.314L557.344 833.094L555.391 832.661L545.601 876.881L547.554 877.314ZM648.132 831.778L647.3 832.332L647.758 833.019L648.519 832.7L648.132 831.778ZM644.282 827.378L643.593 828.103L643.602 828.111L643.611 828.119L644.282 827.378ZM630.532 828.368L631.143 829.159L631.15 829.154L631.157 829.149L630.532 828.368ZM623.932 835.958L623.073 835.446L623.069 835.452L623.932 835.958ZM619.862 845.968L620.828 846.224L620.83 846.219L619.862 845.968ZM618.872 861.588L617.884 861.746L617.888 861.769L617.893 861.792L618.872 861.588ZM620.632 866.538L619.746 867.002L619.751 867.011L619.756 867.02L620.632 866.538ZM623.932 870.168L623.367 870.993L623.382 871.003L623.398 871.013L623.932 870.168ZM637.132 869.288L637.579 870.182L637.588 870.178L637.597 870.173L637.132 869.288ZM645.602 864.008L646.496 863.56L645.968 862.503L645.012 863.2L645.602 864.008ZM646.922 866.648L647.448 867.498L648.225 867.017L647.816 866.2L646.922 866.648ZM635.372 873.798L634.846 872.947L634.84 872.951L635.372 873.798ZM628.442 877.318L628.106 876.376L628.095 876.38L628.442 877.318ZM616.452 876.548L615.905 877.385L615.912 877.389L615.919 877.394L616.452 876.548ZM611.942 871.708L611.068 872.193L611.068 872.193L611.942 871.708ZM609.632 865.218L608.643 865.367L608.646 865.385L608.649 865.402L609.632 865.218ZM609.302 858.178L610.3 858.242L610.302 858.21V858.178H609.302ZM609.632 853.888L610.628 853.978L610.628 853.976L609.632 853.888ZM611.832 845.198L610.901 844.833L610.896 844.844L611.832 845.198ZM628.992 825.288L628.504 824.415L628.503 824.415L628.992 825.288ZM636.362 821.988L636.046 821.039L636.046 821.039L636.362 821.988ZM648.352 821.438L648.135 822.414L648.155 822.418L648.176 822.422L648.352 821.438ZM653.082 823.198L654.059 823.408L654.196 822.775L653.673 822.391L653.082 823.198ZM651.542 830.348L651.929 831.27L652.41 831.068L652.519 830.558L651.542 830.348ZM648.964 831.223C647.886 829.606 646.547 828.078 644.953 826.636L643.611 828.119C645.097 829.464 646.324 830.869 647.3 832.332L648.964 831.223ZM644.971 826.653C643.323 825.087 641.354 824.288 639.112 824.288V826.288C640.829 826.288 642.308 826.882 643.593 828.103L644.971 826.653ZM639.112 824.288C635.721 824.288 632.643 825.398 629.907 827.587L631.157 829.149C633.554 827.231 636.196 826.288 639.112 826.288V824.288ZM629.921 827.576C627.245 829.641 624.964 832.269 623.073 835.446L624.791 836.469C626.567 833.486 628.686 831.055 631.143 829.159L629.921 827.576ZM623.069 835.452C621.259 838.545 619.869 841.968 618.894 845.716L620.83 846.219C621.762 842.634 623.085 839.384 624.795 836.463L623.069 835.452ZM618.895 845.711C617.923 849.376 617.432 852.872 617.432 856.198H619.432C619.432 853.07 619.894 849.746 620.828 846.224L618.895 845.711ZM617.432 856.198C617.432 858.013 617.583 859.863 617.884 861.746L619.859 861.43C619.574 859.646 619.432 857.902 619.432 856.198H617.432ZM617.893 861.792C618.278 863.639 618.895 865.377 619.746 867.002L621.518 866.074C620.755 864.618 620.199 863.056 619.851 861.384L617.893 861.792ZM619.756 867.02C620.639 868.625 621.846 869.952 623.367 870.993L624.497 869.342C623.231 868.477 622.239 867.384 621.508 866.056L619.756 867.02ZM623.398 871.013C624.986 872.016 626.906 872.488 629.102 872.488V870.488C627.191 870.488 625.664 870.079 624.466 869.322L623.398 871.013ZM629.102 872.488C631.722 872.488 634.554 871.695 637.579 870.182L636.685 868.393C633.843 869.814 631.322 870.488 629.102 870.488V872.488ZM637.597 870.173C640.574 868.61 643.439 866.824 646.191 864.815L645.012 863.2C642.338 865.151 639.556 866.885 636.667 868.402L637.597 870.173ZM644.707 864.455L646.027 867.095L647.816 866.2L646.496 863.56L644.707 864.455ZM646.396 865.797L634.846 872.947L635.898 874.648L647.448 867.498L646.396 865.797ZM634.84 872.951C632.313 874.539 630.07 875.674 628.106 876.376L628.778 878.259C630.921 877.494 633.298 876.283 635.904 874.644L634.84 872.951ZM628.095 876.38C626.152 877.1 624.707 877.418 623.712 877.418V879.418C625.063 879.418 626.772 879.002 628.789 878.255L628.095 876.38ZM623.712 877.418C620.998 877.418 618.773 876.827 616.985 875.701L615.919 877.394C618.091 878.761 620.705 879.418 623.712 879.418V877.418ZM616.999 875.711C615.228 874.552 613.837 873.059 612.816 871.222L611.068 872.193C612.247 874.316 613.863 876.05 615.905 877.385L616.999 875.711ZM612.816 871.222C611.771 869.341 611.036 867.28 610.615 865.033L608.649 865.402C609.108 867.849 609.913 870.114 611.068 872.193L612.816 871.222ZM610.621 865.068C610.264 862.713 610.158 860.439 610.3 858.242L608.304 858.113C608.152 860.463 608.267 862.882 608.643 865.367L610.621 865.068ZM610.302 858.178C610.302 857.795 610.405 856.424 610.628 853.978L608.636 853.797C608.418 856.191 608.302 857.68 608.302 858.178H610.302ZM610.628 853.976C610.837 851.602 611.541 848.798 612.767 845.551L610.896 844.844C609.63 848.198 608.866 851.187 608.636 853.8L610.628 853.976ZM612.763 845.562C614.045 842.286 615.978 838.878 618.578 835.34L616.966 834.156C614.286 837.804 612.259 841.363 610.901 844.833L612.763 845.562ZM618.578 835.34C621.115 831.886 624.736 828.82 629.481 826.16L628.503 824.415C623.568 827.182 619.708 830.423 616.966 834.156L618.578 835.34ZM629.48 826.161C631.925 824.794 634.324 823.721 636.678 822.936L636.046 821.039C633.56 821.868 631.046 822.994 628.504 824.415L629.48 826.161ZM636.678 822.936C639.038 822.15 641.016 821.778 642.632 821.778V819.778C640.728 819.778 638.526 820.212 636.046 821.039L636.678 822.936ZM642.632 821.778C644.385 821.778 646.219 821.988 648.135 822.414L648.569 820.461C646.525 820.007 644.545 819.778 642.632 819.778V821.778ZM648.176 822.422C650.151 822.775 651.562 823.323 652.491 824.004L653.673 822.391C652.402 821.459 650.659 820.834 648.528 820.453L648.176 822.422ZM652.104 822.987L650.564 830.137L652.519 830.558L654.059 823.408L652.104 822.987ZM651.155 829.425L647.745 830.855L648.519 832.7L651.929 831.27L651.155 829.425ZM666.821 845.418L665.837 845.236L665.655 846.222L666.642 846.402L666.821 845.418ZM678.591 845.198L678.274 844.249L678.268 844.251L678.591 845.198ZM685.851 840.798L686.586 841.476L686.586 841.476L685.851 840.798ZM689.371 834.528L688.408 834.257L688.405 834.267L688.402 834.278L689.371 834.528ZM689.151 824.848L689.914 824.202L689.914 824.202L689.151 824.848ZM680.241 825.728L680.814 826.547L680.814 826.547L680.241 825.728ZM674.081 831.448L673.315 830.805L673.312 830.807L674.081 831.448ZM693.331 866.648L693.853 867.5L694.661 867.005L694.21 866.171L693.331 866.648ZM681.671 873.798L681.148 872.945L681.139 872.951L681.671 873.798ZM674.631 877.318L674.957 878.263L674.957 878.263L674.631 877.318ZM662.091 876.438L661.454 877.209L661.472 877.224L661.491 877.238L662.091 876.438ZM658.131 871.378L657.224 871.799L657.23 871.811L658.131 871.378ZM656.151 864.778L657.139 864.623L657.139 864.623L656.151 864.778ZM658.351 844.758L657.431 844.366L657.428 844.373L658.351 844.758ZM665.831 832.768L665.079 832.108L665.078 832.109L665.831 832.768ZM676.721 824.078L676.255 823.193L676.248 823.196L676.721 824.078ZM696.191 823.308L695.403 823.924L695.418 823.943L695.434 823.961L696.191 823.308ZM695.751 838.598L694.915 838.048L694.909 838.057L694.904 838.065L695.751 838.598ZM688.931 845.088L689.445 845.945L689.445 845.945L688.931 845.088ZM678.591 848.718L678.426 847.731L678.423 847.732L678.591 848.718ZM665.941 848.058L666.176 847.086L665.194 846.848L664.966 847.833L665.941 848.058ZM666.051 864.118L665.099 864.425L665.105 864.443L665.112 864.462L666.051 864.118ZM669.571 869.508L668.9 870.249L668.91 870.258L668.92 870.267L669.571 869.508ZM683.431 869.288L683.887 870.178L683.896 870.173L683.431 869.288ZM691.901 864.008L692.78 863.531L692.235 862.526L691.311 863.2L691.901 864.008ZM666.642 846.402C671.566 847.297 675.681 847.248 678.914 846.144L678.268 844.251C675.487 845.201 671.756 845.299 667 844.434L666.642 846.402ZM678.907 846.146C682.107 845.079 684.686 843.534 686.586 841.476L685.116 840.119C683.496 841.875 681.234 843.262 678.274 844.249L678.907 846.146ZM686.586 841.476C688.445 839.461 689.707 837.227 690.339 834.778L688.402 834.278C687.861 836.375 686.776 838.321 685.116 840.119L686.586 841.476ZM690.333 834.798C691.007 832.404 691.361 830.326 691.361 828.588H689.361C689.361 830.076 689.055 831.958 688.408 834.257L690.333 834.798ZM691.361 828.588C691.361 826.868 690.907 825.375 689.914 824.202L688.387 825.494C689.008 826.227 689.361 827.227 689.361 828.588H691.361ZM689.914 824.202C689.022 823.147 687.962 822.418 686.731 822.418V824.418C687.113 824.418 687.666 824.641 688.387 825.494L689.914 824.202ZM686.731 822.418C684.351 822.418 681.991 823.282 679.667 824.908L680.814 826.547C682.89 825.094 684.857 824.418 686.731 824.418V822.418ZM679.667 824.908C677.388 826.504 675.272 828.472 673.315 830.805L674.847 832.09C676.703 829.877 678.693 828.032 680.814 826.547L679.667 824.908ZM673.312 830.807C671.432 833.064 669.815 835.509 668.461 838.14L670.24 839.055C671.527 836.553 673.063 834.231 674.849 832.088L673.312 830.807ZM668.461 838.14C667.114 840.76 666.228 843.128 665.837 845.236L667.804 845.6C668.147 843.747 668.947 841.569 670.24 839.055L668.461 838.14ZM692.808 865.795L681.148 872.945L682.193 874.65L693.853 867.5L692.808 865.795ZM681.139 872.951C678.616 874.537 676.339 875.671 674.305 876.372L674.957 878.263C677.176 877.498 679.592 876.285 682.203 874.644L681.139 872.951ZM674.305 876.372C672.26 877.077 670.391 877.418 668.691 877.418V879.418C670.657 879.418 672.748 879.025 674.957 878.263L674.305 876.372ZM668.691 877.418C666.223 877.418 664.245 876.803 662.691 875.638L661.491 877.238C663.456 878.712 665.879 879.418 668.691 879.418V877.418ZM662.728 875.667C661.153 874.366 659.923 872.794 659.032 870.944L657.23 871.811C658.245 873.921 659.655 875.723 661.454 877.209L662.728 875.667ZM659.038 870.957C658.126 868.992 657.492 866.882 657.139 864.623L655.163 864.932C655.543 867.366 656.229 869.657 657.224 871.799L659.038 870.957ZM657.139 864.623C656.779 862.32 656.601 860.172 656.601 858.178H654.601C654.601 860.29 654.789 862.542 655.163 864.932L657.139 864.623ZM656.601 858.178C656.601 853.769 657.489 849.426 659.274 845.142L657.428 844.373C655.546 848.889 654.601 853.493 654.601 858.178H656.601ZM659.271 845.15C661.138 840.77 663.575 836.864 666.583 833.426L665.078 832.109C661.926 835.712 659.377 839.799 657.431 844.366L659.271 845.15ZM666.582 833.427C669.659 829.922 673.195 827.101 677.193 824.959L676.248 823.196C672.033 825.454 668.309 828.427 665.079 832.108L666.582 833.427ZM677.186 824.963C681.231 822.834 685.399 821.778 689.701 821.778V819.778C685.056 819.778 680.57 820.922 676.255 823.193L677.186 824.963ZM689.701 821.778C692.531 821.778 694.341 822.567 695.403 823.924L696.978 822.691C695.4 820.675 692.884 819.778 689.701 819.778V821.778ZM695.434 823.961C696.604 825.316 697.281 827.492 697.281 830.678H699.281C699.281 827.263 698.564 824.526 696.948 822.654L695.434 823.961ZM697.281 830.678C697.281 833.171 696.509 835.623 694.915 838.048L696.586 839.147C698.366 836.439 699.281 833.611 699.281 830.678H697.281ZM694.904 838.065C693.385 840.483 691.232 842.541 688.416 844.23L689.445 845.945C692.496 844.115 694.89 841.846 696.597 839.13L694.904 838.065ZM688.416 844.23C685.607 845.915 682.284 847.088 678.426 847.731L678.755 849.704C682.818 849.027 686.387 847.78 689.445 845.945L688.416 844.23ZM678.423 847.732C674.693 848.365 670.615 848.16 666.176 847.086L665.706 849.03C670.36 850.156 674.715 850.39 678.758 849.704L678.423 847.732ZM664.966 847.833C664.29 850.763 663.951 853.661 663.951 856.528H665.951C665.951 853.821 666.271 851.073 666.915 848.283L664.966 847.833ZM663.951 856.528C663.951 859.402 664.329 862.037 665.099 864.425L667.002 863.811C666.306 861.651 665.951 859.227 665.951 856.528H663.951ZM665.112 864.462C665.967 866.794 667.225 868.734 668.9 870.249L670.242 868.766C668.837 867.495 667.748 865.841 666.99 863.773L665.112 864.462ZM668.92 870.267C670.675 871.771 672.9 872.488 675.511 872.488V870.488C673.281 870.488 671.547 869.884 670.221 868.748L668.92 870.267ZM675.511 872.488C678.133 872.488 680.93 871.694 683.887 870.177L682.974 868.398C680.211 869.815 677.729 870.488 675.511 870.488V872.488ZM683.896 870.173C686.873 868.61 689.738 866.824 692.49 864.815L691.311 863.2C688.637 865.151 685.855 866.885 682.966 868.402L683.896 870.173ZM691.021 864.484L692.451 867.124L694.21 866.171L692.78 863.531L691.021 864.484ZM766.801 862.028L765.822 861.823L765.819 861.838L765.817 861.852L766.801 862.028ZM765.921 866.868L766.902 867.064L766.904 867.052L765.921 866.868ZM765.591 870.718L766.59 870.776L766.591 870.747V870.718H765.591ZM768.561 873.138L768.737 872.153L768.737 872.153L768.561 873.138ZM777.911 874.238L778.893 874.427L779.103 873.338L777.999 873.241L777.911 874.238ZM777.361 877.098V878.098H778.187L778.343 877.287L777.361 877.098ZM739.741 877.098L738.759 876.909L738.531 878.098H739.741V877.098ZM740.291 874.238L740.205 873.241L739.452 873.306L739.309 874.049L740.291 874.238ZM749.971 873.138L749.812 872.15L749.807 872.151L749.971 873.138ZM754.151 870.718L755.076 871.098L755.086 871.073L755.095 871.048L754.151 870.718ZM755.361 866.868L756.327 867.125L756.329 867.118L756.331 867.11L755.361 866.868ZM756.351 862.028L755.372 861.823L755.369 861.837L755.367 861.852L756.351 862.028ZM766.141 815.278L765.165 815.061L765.162 815.073L766.141 815.278ZM766.031 811.098L765.137 811.545L765.16 811.591L765.188 811.635L766.031 811.098ZM763.831 809.668L763.755 810.665L763.76 810.665L763.831 809.668ZM760.421 810.108L760.154 809.144L760.146 809.146L760.139 809.148L760.421 810.108ZM756.681 811.318L756.348 810.375L756.336 810.379L756.681 811.318ZM751.291 813.298L750.302 813.443L750.481 814.661L751.636 814.236L751.291 813.298ZM750.741 809.558L750.396 808.619L749.634 808.9L749.752 809.703L750.741 809.558ZM780.001 798.778L780.98 798.982L781.349 797.215L779.656 797.839L780.001 798.778ZM765.817 861.852C765.45 863.904 765.158 865.514 764.938 866.683L766.904 867.052C767.125 865.874 767.419 864.258 767.786 862.203L765.817 861.852ZM764.941 866.672C764.705 867.852 764.591 869.204 764.591 870.718H766.591C766.591 869.298 766.698 868.083 766.902 867.064L764.941 866.672ZM764.593 870.659C764.537 871.612 764.91 872.432 765.647 873.033C766.332 873.591 767.286 873.926 768.385 874.122L768.737 872.153C767.783 871.983 767.215 871.731 766.91 871.482C766.658 871.277 766.572 871.07 766.59 870.776L764.593 870.659ZM768.385 874.122C770.484 874.497 773.638 874.867 777.824 875.234L777.999 873.241C773.825 872.875 770.745 872.512 768.737 872.153L768.385 874.122ZM776.929 874.049L776.379 876.909L778.343 877.287L778.893 874.427L776.929 874.049ZM777.361 876.098H739.741V878.098H777.361V876.098ZM740.723 877.287L741.273 874.427L739.309 874.049L738.759 876.909L740.723 877.287ZM740.377 875.234C744.638 874.867 747.896 874.497 750.136 874.124L749.807 872.151C747.647 872.511 744.452 872.875 740.205 873.241L740.377 875.234ZM750.13 874.125C752.5 873.743 754.357 872.844 755.076 871.098L753.227 870.337C752.919 871.084 751.989 871.799 749.812 872.15L750.13 874.125ZM755.095 871.048C755.614 869.565 756.026 868.257 756.327 867.125L754.395 866.61C754.11 867.679 753.715 868.937 753.207 870.387L755.095 871.048ZM756.331 867.11C756.633 865.905 756.967 864.266 757.336 862.203L755.367 861.852C755.002 863.896 754.676 865.484 754.391 866.625L756.331 867.11ZM757.33 862.233L767.12 815.483L765.162 815.073L755.372 861.823L757.33 862.233ZM767.117 815.495C767.348 814.457 767.465 813.528 767.443 812.721C767.422 811.921 767.264 811.172 766.875 810.561L765.188 811.635C765.312 811.83 765.428 812.181 765.444 812.774C765.46 813.361 765.375 814.118 765.165 815.061L767.117 815.495ZM766.926 810.65C766.319 809.437 765.262 808.767 763.902 808.67L763.76 810.665C764.454 810.715 764.864 810.998 765.137 811.545L766.926 810.65ZM763.908 808.671C762.8 808.585 761.541 808.759 760.154 809.144L760.689 811.071C761.941 810.723 762.955 810.603 763.755 810.665L763.908 808.671ZM760.139 809.148C758.875 809.52 757.612 809.929 756.348 810.375L757.014 812.261C758.244 811.826 759.474 811.429 760.703 811.067L760.139 809.148ZM756.336 810.379L750.946 812.359L751.636 814.236L757.026 812.256L756.336 810.379ZM752.281 813.152L751.731 809.412L749.752 809.703L750.302 813.443L752.281 813.152ZM751.087 810.496L780.347 799.716L779.656 797.839L750.396 808.619L751.087 810.496ZM779.022 798.573L765.822 861.823L767.78 862.232L780.98 798.982L779.022 798.573ZM844.155 813.408L845.121 813.148L845.121 813.148L844.155 813.408ZM841.845 808.238L841.002 808.775L841.007 808.784L841.013 808.792L841.845 808.238ZM837.995 804.278L837.414 805.091L837.427 805.101L837.441 805.11L837.995 804.278ZM825.125 804.608L825.606 805.484L825.617 805.479L825.627 805.472L825.125 804.608ZM819.185 809.888L818.382 809.292L818.376 809.3L818.37 809.309L819.185 809.888ZM815.335 817.808L816.289 818.11L816.289 818.11L815.335 817.808ZM814.345 831.558L815.331 831.386L815.331 831.386L814.345 831.558ZM816.105 836.508L815.227 836.987L815.241 837.011L815.255 837.034L816.105 836.508ZM820.065 840.578L819.494 841.399L820.065 840.578ZM832.165 841.128L832.531 842.058L832.531 842.058L832.165 841.128ZM837.995 837.168L837.302 836.447L837.295 836.454L837.288 836.461L837.995 837.168ZM842.835 830.018L841.928 829.597L841.923 829.607L842.835 830.018ZM798.835 873.578L798.779 872.579L798.06 872.62L797.871 873.315L798.835 873.578ZM813.245 870.388L812.861 869.465L812.861 869.465L813.245 870.388ZM825.125 863.238L825.765 864.006L825.765 864.006L825.125 863.238ZM834.145 853.008L833.311 852.457L833.304 852.468L834.145 853.008ZM840.085 840.578L841.039 840.88L841.222 840.3L840.792 839.871L840.085 840.578ZM839.865 840.358L840.572 839.651L839.913 838.991L839.21 839.603L839.865 840.358ZM831.395 845.748L831.775 846.673L831.775 846.673L831.395 845.748ZM803.785 835.958L802.843 836.292L802.843 836.292L803.785 835.958ZM805.105 816.158L804.2 815.732L804.197 815.739L804.194 815.747L805.105 816.158ZM812.035 806.698L811.367 805.953L811.367 805.953L812.035 806.698ZM821.715 800.868L822.06 801.806L822.071 801.802L821.715 800.868ZM843.055 800.758L842.636 801.666L842.646 801.67L842.656 801.674L843.055 800.758ZM850.095 805.928L849.327 806.568L849.333 806.575L849.34 806.583L850.095 805.928ZM853.395 836.398L854.336 836.737L854.336 836.737L853.395 836.398ZM846.795 849.268L845.968 848.706L845.966 848.709L846.795 849.268ZM837.005 860.598L836.327 859.863L836.32 859.869L837.005 860.598ZM824.905 869.838L825.422 870.694L825.426 870.691L824.905 869.838ZM811.485 875.998L811.784 876.952L811.79 876.95L811.797 876.948L811.485 875.998ZM797.515 878.418L796.551 878.155L796.194 879.46L797.547 879.417L797.515 878.418ZM845.925 818.908C845.925 817.05 845.654 815.129 845.121 813.148L843.19 813.668C843.683 815.5 843.925 817.245 843.925 818.908H845.925ZM845.121 813.148C844.581 811.143 843.768 809.319 842.677 807.683L841.013 808.792C841.976 810.236 842.703 811.859 843.19 813.668L845.121 813.148ZM842.689 807.701C841.59 805.974 840.21 804.552 838.55 803.446L837.441 805.11C838.861 806.057 840.047 807.275 841.002 808.775L842.689 807.701ZM838.577 803.464C836.846 802.228 834.804 801.628 832.495 801.628V803.628C834.44 803.628 836.064 804.127 837.414 805.091L838.577 803.464ZM832.495 801.628C829.68 801.628 827.05 802.334 824.623 803.743L825.627 805.472C827.748 804.241 830.031 803.628 832.495 803.628V801.628ZM824.644 803.731C822.233 805.053 820.147 806.913 818.382 809.292L819.988 810.484C821.597 808.315 823.47 806.656 825.606 805.484L824.644 803.731ZM818.37 809.309C816.689 811.677 815.363 814.413 814.382 817.505L816.289 818.11C817.215 815.189 818.455 812.645 820.001 810.466L818.37 809.309ZM814.382 817.505C813.394 820.62 812.905 823.987 812.905 827.598H814.905C814.905 824.168 815.37 821.008 816.289 818.11L814.382 817.505ZM812.905 827.598C812.905 828.637 813.063 830.023 813.36 831.729L815.331 831.386C815.041 829.719 814.905 828.465 814.905 827.598H812.905ZM813.36 831.729C813.673 833.531 814.299 835.284 815.227 836.987L816.983 836.029C816.152 834.504 815.604 832.958 815.331 831.386L813.36 831.729ZM815.255 837.034C816.289 838.705 817.71 840.158 819.494 841.399L820.636 839.757C819.047 838.651 817.828 837.39 816.956 835.981L815.255 837.034ZM819.494 841.399C821.403 842.726 823.899 843.338 826.885 843.338V841.338C824.152 841.338 822.101 840.776 820.636 839.757L819.494 841.399ZM826.885 843.338C828.524 843.338 830.414 842.89 832.531 842.058L831.8 840.197C829.81 840.979 828.18 841.338 826.885 841.338V843.338ZM832.531 842.058C834.733 841.193 836.789 839.789 838.702 837.875L837.288 836.461C835.535 838.213 833.705 839.449 831.8 840.197L832.531 842.058ZM838.688 837.888C840.705 835.95 842.386 833.453 843.747 830.428L841.923 829.607C840.645 832.449 839.099 834.719 837.302 836.447L838.688 837.888ZM843.743 830.438C845.214 827.264 845.925 823.408 845.925 818.908H843.925C843.925 823.208 843.244 826.758 841.928 829.597L843.743 830.438ZM798.892 874.576C804.201 874.277 809.116 873.191 813.63 871.311L812.861 869.465C808.574 871.251 803.883 872.292 798.779 872.579L798.892 874.576ZM813.63 871.311C818.119 869.44 822.165 867.006 825.765 864.006L824.485 862.469C821.045 865.336 817.172 867.668 812.861 869.465L813.63 871.311ZM825.765 864.006C829.365 861.007 832.439 857.52 834.987 853.548L833.304 852.468C830.865 856.269 827.926 859.602 824.485 862.469L825.765 864.006ZM834.98 853.559C837.597 849.596 839.617 845.369 841.039 840.88L839.132 840.276C837.767 844.587 835.827 848.646 833.311 852.457L834.98 853.559ZM840.792 839.871L840.572 839.651L839.158 841.065L839.378 841.285L840.792 839.871ZM839.21 839.603C836.49 841.965 833.758 843.698 831.016 844.822L831.775 846.673C834.753 845.451 837.668 843.591 840.521 841.113L839.21 839.603ZM831.016 844.822C828.311 845.932 824.928 846.508 820.835 846.508V848.508C825.102 848.508 828.76 847.91 831.775 846.673L831.016 844.822ZM820.835 846.508C818.019 846.508 815.56 846.015 813.437 845.056L812.614 846.879C815.037 847.973 817.785 848.508 820.835 848.508V846.508ZM813.437 845.056C811.276 844.08 809.484 842.801 808.044 841.223L806.567 842.572C808.207 844.368 810.228 845.802 812.614 846.879L813.437 845.056ZM808.044 841.223C806.599 839.641 805.492 837.778 804.728 835.623L802.843 836.292C803.692 838.684 804.932 840.781 806.567 842.572L808.044 841.223ZM804.728 835.623C803.959 833.458 803.575 831.224 803.575 828.918H801.575C801.575 831.451 801.998 833.911 802.843 836.292L804.728 835.623ZM803.575 828.918C803.575 824.27 804.397 820.16 806.017 816.569L804.194 815.747C802.44 819.635 801.575 824.032 801.575 828.918H803.575ZM806.01 816.583C807.718 812.955 809.95 809.913 812.703 807.442L811.367 805.953C808.401 808.616 806.013 811.88 804.2 815.732L806.01 816.583ZM812.703 807.442C815.469 804.96 818.586 803.082 822.06 801.806L821.37 799.929C817.658 801.293 814.321 803.302 811.367 805.953L812.703 807.442ZM822.071 801.802C825.627 800.451 829.247 799.778 832.935 799.778V797.778C828.997 797.778 825.137 798.498 821.36 799.933L822.071 801.802ZM832.935 799.778C836.71 799.778 839.935 800.419 842.636 801.666L843.474 799.85C840.456 798.457 836.934 797.778 832.935 797.778V799.778ZM842.656 801.674C845.386 802.864 847.602 804.498 849.327 806.568L850.864 805.287C848.922 802.957 846.445 801.144 843.455 799.841L842.656 801.674ZM849.34 806.583C851.154 808.676 852.52 811.123 853.434 813.937L855.336 813.319C854.344 810.266 852.85 807.58 850.851 805.273L849.34 806.583ZM853.434 813.937C854.353 816.764 854.815 819.775 854.815 822.978H856.815C856.815 819.58 856.324 816.358 855.336 813.319L853.434 813.937ZM854.815 822.978C854.815 827.328 854.031 831.687 852.455 836.058L854.336 836.737C855.986 832.162 856.815 827.574 856.815 822.978H854.815ZM852.455 836.058C850.871 840.45 848.71 844.666 845.968 848.706L847.623 849.829C850.454 845.656 852.693 841.292 854.336 836.737L852.455 836.058ZM845.966 848.709C843.299 852.674 840.087 856.392 836.327 859.863L837.684 861.332C841.55 857.763 844.865 853.928 847.625 849.826L845.966 848.709ZM836.32 859.869C832.63 863.343 828.651 866.381 824.384 868.984L825.426 870.691C829.813 868.015 833.901 864.893 837.691 861.326L836.32 859.869ZM824.389 868.981C820.199 871.509 815.795 873.531 811.174 875.047L811.797 876.948C816.562 875.384 821.104 873.299 825.422 870.694L824.389 868.981ZM811.187 875.043C806.575 876.485 802.008 877.275 797.484 877.418L797.547 879.417C802.263 879.267 807.009 878.444 811.784 876.952L811.187 875.043ZM798.48 878.681L799.8 873.841L797.871 873.315L796.551 878.155L798.48 878.681ZM907.319 813.408L908.285 813.148L908.285 813.148L907.319 813.408ZM905.009 808.238L904.166 808.775L904.171 808.784L904.177 808.792L905.009 808.238ZM901.159 804.278L900.578 805.091L900.591 805.101L900.605 805.11L901.159 804.278ZM888.289 804.608L888.77 805.484L888.781 805.479L888.792 805.472L888.289 804.608ZM882.349 809.888L881.546 809.292L881.54 809.3L881.534 809.309L882.349 809.888ZM878.499 817.808L879.453 818.11L879.453 818.11L878.499 817.808ZM877.509 831.558L878.495 831.386L878.495 831.386L877.509 831.558ZM879.269 836.508L878.391 836.987L878.405 837.011L878.419 837.034L879.269 836.508ZM883.229 840.578L882.658 841.399L883.229 840.578ZM895.329 841.128L895.695 842.058L895.695 842.058L895.329 841.128ZM901.159 837.168L900.466 836.447L900.459 836.454L900.452 836.461L901.159 837.168ZM905.999 830.018L905.092 829.597L905.087 829.607L905.999 830.018ZM861.999 873.578L861.943 872.579L861.224 872.62L861.035 873.315L861.999 873.578ZM876.409 870.388L876.025 869.465L876.025 869.465L876.409 870.388ZM888.289 863.238L888.93 864.006L888.93 864.006L888.289 863.238ZM897.309 853.008L896.475 852.457L896.468 852.468L897.309 853.008ZM903.249 840.578L904.203 840.88L904.386 840.3L903.956 839.871L903.249 840.578ZM903.029 840.358L903.736 839.651L903.077 838.991L902.374 839.603L903.029 840.358ZM894.559 845.748L894.939 846.673L894.939 846.673L894.559 845.748ZM866.949 835.958L866.007 836.292L866.007 836.292L866.949 835.958ZM868.269 816.158L867.365 815.732L867.361 815.739L867.358 815.747L868.269 816.158ZM875.199 806.698L874.531 805.953L874.531 805.953L875.199 806.698ZM884.879 800.868L885.224 801.806L885.235 801.802L884.879 800.868ZM906.219 800.758L905.8 801.666L905.81 801.67L905.82 801.674L906.219 800.758ZM913.259 805.928L912.491 806.568L912.497 806.575L912.504 806.583L913.259 805.928ZM916.559 836.398L917.5 836.737L917.5 836.737L916.559 836.398ZM909.959 849.268L909.132 848.706L909.13 848.709L909.959 849.268ZM900.169 860.598L899.491 859.863L899.484 859.869L900.169 860.598ZM888.069 869.838L888.586 870.694L888.59 870.691L888.069 869.838ZM874.649 875.998L874.948 876.952L874.954 876.95L874.961 876.948L874.649 875.998ZM860.679 878.418L859.715 878.155L859.359 879.46L860.711 879.417L860.679 878.418ZM909.089 818.908C909.089 817.05 908.818 815.129 908.285 813.148L906.354 813.668C906.847 815.5 907.089 817.245 907.089 818.908H909.089ZM908.285 813.148C907.745 811.143 906.932 809.319 905.841 807.683L904.177 808.792C905.14 810.236 905.867 811.859 906.354 813.668L908.285 813.148ZM905.853 807.701C904.754 805.974 903.374 804.552 901.714 803.446L900.605 805.11C902.025 806.057 903.211 807.275 904.166 808.775L905.853 807.701ZM901.741 803.464C900.01 802.228 897.968 801.628 895.659 801.628V803.628C897.605 803.628 899.228 804.127 900.578 805.091L901.741 803.464ZM895.659 801.628C892.844 801.628 890.214 802.334 887.787 803.743L888.792 805.472C890.912 804.241 893.195 803.628 895.659 803.628V801.628ZM887.809 803.731C885.398 805.053 883.311 806.913 881.546 809.292L883.152 810.484C884.761 808.315 886.635 806.656 888.77 805.484L887.809 803.731ZM881.534 809.309C879.853 811.677 878.527 814.413 877.546 817.505L879.453 818.11C880.379 815.189 881.619 812.645 883.165 810.466L881.534 809.309ZM877.546 817.505C876.558 820.62 876.069 823.987 876.069 827.598H878.069C878.069 824.168 878.534 821.008 879.453 818.11L877.546 817.505ZM876.069 827.598C876.069 828.637 876.227 830.023 876.524 831.729L878.495 831.386C878.205 829.719 878.069 828.465 878.069 827.598H876.069ZM876.524 831.729C876.838 833.531 877.463 835.284 878.391 836.987L880.147 836.029C879.316 834.504 878.768 832.958 878.495 831.386L876.524 831.729ZM878.419 837.034C879.453 838.705 880.874 840.158 882.658 841.399L883.8 839.757C882.211 838.651 880.992 837.39 880.12 835.981L878.419 837.034ZM882.658 841.399C884.567 842.726 887.063 843.338 890.049 843.338V841.338C887.316 841.338 885.265 840.776 883.8 839.757L882.658 841.399ZM890.049 843.338C891.688 843.338 893.578 842.89 895.695 842.058L894.964 840.197C892.974 840.979 891.344 841.338 890.049 841.338V843.338ZM895.695 842.058C897.897 841.193 899.953 839.789 901.866 837.875L900.452 836.461C898.699 838.213 896.869 839.449 894.964 840.197L895.695 842.058ZM901.852 837.888C903.869 835.95 905.55 833.453 906.911 830.428L905.087 829.607C903.809 832.449 902.263 834.719 900.466 836.447L901.852 837.888ZM906.907 830.438C908.378 827.264 909.089 823.408 909.089 818.908H907.089C907.089 823.208 906.408 826.758 905.092 829.597L906.907 830.438ZM862.056 874.576C867.365 874.277 872.28 873.191 876.794 871.311L876.025 869.465C871.739 871.251 867.047 872.292 861.943 872.579L862.056 874.576ZM876.794 871.311C881.283 869.44 885.33 867.006 888.93 864.006L887.649 862.469C884.209 865.336 880.336 867.668 876.025 869.465L876.794 871.311ZM888.93 864.006C892.529 861.007 895.603 857.52 898.151 853.548L896.468 852.468C894.029 856.269 891.09 859.602 887.649 862.469L888.93 864.006ZM898.144 853.559C900.761 849.596 902.781 845.369 904.203 840.88L902.296 840.276C900.931 844.587 898.991 848.646 896.475 852.457L898.144 853.559ZM903.956 839.871L903.736 839.651L902.322 841.065L902.542 841.285L903.956 839.871ZM902.374 839.603C899.654 841.965 896.922 843.698 894.18 844.822L894.939 846.673C897.917 845.451 900.832 843.591 903.685 841.113L902.374 839.603ZM894.18 844.822C891.475 845.932 888.092 846.508 883.999 846.508V848.508C888.266 848.508 891.924 847.91 894.939 846.673L894.18 844.822ZM883.999 846.508C881.183 846.508 878.724 846.015 876.601 845.056L875.778 846.879C878.201 847.973 880.949 848.508 883.999 848.508V846.508ZM876.601 845.056C874.44 844.08 872.648 842.801 871.208 841.223L869.731 842.572C871.371 844.368 873.392 845.802 875.778 846.879L876.601 845.056ZM871.208 841.223C869.763 839.641 868.656 837.778 867.892 835.623L866.007 836.292C866.856 838.684 868.096 840.781 869.731 842.572L871.208 841.223ZM867.892 835.623C867.123 833.458 866.739 831.224 866.739 828.918H864.739C864.739 831.451 865.162 833.911 866.007 836.292L867.892 835.623ZM866.739 828.918C866.739 824.27 867.561 820.16 869.181 816.569L867.358 815.747C865.604 819.635 864.739 824.032 864.739 828.918H866.739ZM869.174 816.583C870.882 812.955 873.114 809.913 875.867 807.442L874.531 805.953C871.565 808.616 869.177 811.88 867.365 815.732L869.174 816.583ZM875.867 807.442C878.633 804.96 881.75 803.082 885.224 801.806L884.535 799.929C880.822 801.293 877.485 803.302 874.531 805.953L875.867 807.442ZM885.235 801.802C888.791 800.451 892.411 799.778 896.099 799.778V797.778C892.161 797.778 888.301 798.498 884.524 799.933L885.235 801.802ZM896.099 799.778C899.874 799.778 903.099 800.419 905.8 801.666L906.638 799.85C903.62 798.457 900.098 797.778 896.099 797.778V799.778ZM905.82 801.674C908.55 802.864 910.766 804.498 912.491 806.568L914.028 805.287C912.086 802.957 909.609 801.144 906.619 799.841L905.82 801.674ZM912.504 806.583C914.318 808.676 915.684 811.123 916.598 813.937L918.5 813.319C917.508 810.266 916.014 807.58 914.015 805.273L912.504 806.583ZM916.598 813.937C917.517 816.764 917.979 819.775 917.979 822.978H919.979C919.979 819.58 919.488 816.358 918.5 813.319L916.598 813.937ZM917.979 822.978C917.979 827.328 917.195 831.687 915.619 836.058L917.5 836.737C919.15 832.162 919.979 827.574 919.979 822.978H917.979ZM915.619 836.058C914.035 840.45 911.874 844.666 909.132 848.706L910.787 849.829C913.618 845.656 915.857 841.292 917.5 836.737L915.619 836.058ZM909.13 848.709C906.463 852.674 903.251 856.392 899.491 859.863L900.848 861.332C904.714 857.763 908.03 853.928 910.789 849.826L909.13 848.709ZM899.484 859.869C895.794 863.343 891.815 866.381 887.549 868.984L888.59 870.691C892.977 868.015 897.065 864.893 900.855 861.326L899.484 859.869ZM887.553 868.981C883.364 871.509 878.959 873.531 874.338 875.047L874.961 876.948C879.727 875.384 884.269 873.299 888.586 870.694L887.553 868.981ZM874.351 875.043C869.739 876.485 865.172 877.275 860.648 877.418L860.711 879.417C865.427 879.267 870.173 878.444 874.948 876.952L874.351 875.043ZM861.644 878.681L862.964 873.841L861.035 873.315L859.715 878.155L861.644 878.681ZM958.933 832.108L958.523 833.02L958.931 833.203L959.34 833.021L958.933 832.108ZM963.113 829.468L962.507 828.672L962.498 828.679L962.489 828.687L963.113 829.468ZM967.293 825.288L966.519 824.654L966.511 824.665L966.502 824.676L967.293 825.288ZM970.483 820.118L969.575 819.699L969.572 819.707L969.568 819.715L970.483 820.118ZM971.253 810.438L970.275 810.644L970.28 810.668L970.286 810.692L971.253 810.438ZM965.973 803.398L965.459 804.255L965.475 804.265L965.492 804.274L965.973 803.398ZM948.923 806.148L948.235 805.422L948.226 805.431L948.923 806.148ZM948.483 825.398L947.766 826.094L947.776 826.105L947.787 826.115L948.483 825.398ZM961.463 834.198L961.162 833.244L958.856 833.972L961.003 835.085L961.463 834.198ZM967.073 837.828L966.453 838.612L966.46 838.618L966.468 838.624L967.073 837.828ZM971.803 842.558L971.003 843.158L971.018 843.176L971.032 843.195L971.803 842.558ZM974.993 847.948L974.06 848.307L974.066 848.322L974.072 848.337L974.993 847.948ZM973.453 864.228L974.307 864.748L974.313 864.739L973.453 864.228ZM966.413 871.928L967.01 872.73L967.01 872.73L966.413 871.928ZM956.953 876.768L957.257 877.72L957.257 877.72L956.953 876.768ZM936.163 876.878L935.833 877.822L935.84 877.824L936.163 876.878ZM928.903 872.918L928.226 873.654L928.242 873.668L928.257 873.681L928.903 872.918ZM924.833 867.198L925.757 866.815L925.757 866.815L924.833 867.198ZM925.713 851.248L924.844 850.754L924.839 850.762L925.713 851.248ZM931.213 844.318L930.559 843.562L930.552 843.567L930.546 843.573L931.213 844.318ZM938.143 839.698L938.58 840.598L938.591 840.592L938.143 839.698ZM944.633 836.838L944.972 837.779L947.069 837.024L945.111 835.959L944.633 836.838ZM935.833 828.918L934.952 829.39L934.957 829.399L934.961 829.407L935.833 828.918ZM935.613 811.318L934.744 810.824L934.739 810.832L935.613 811.318ZM941.663 804.498L942.256 805.303L942.26 805.3L941.663 804.498ZM950.353 800.208L950.076 799.247L950.07 799.249L950.353 800.208ZM975.323 802.738L974.699 803.519L974.707 803.525L975.323 802.738ZM978.183 821.878L977.328 821.359L977.324 821.367L978.183 821.878ZM973.013 827.928L972.379 827.155L972.372 827.161L972.365 827.166L973.013 827.928ZM966.743 831.998L966.321 831.091L966.309 831.097L966.743 831.998ZM947.383 838.818L947.88 837.949L947.415 837.684L946.936 837.923L947.383 838.818ZM937.703 846.738L936.903 846.138L936.903 846.138L937.703 846.738ZM934.513 852.898L935.456 853.232L935.459 853.223L934.513 852.898ZM934.183 865.768L933.239 866.096L933.245 866.114L933.252 866.132L934.183 865.768ZM936.933 870.278L936.186 870.942L936.196 870.953L936.206 870.964L936.933 870.278ZM941.333 873.468L940.902 874.37L940.925 874.381L940.949 874.391L941.333 873.468ZM953.433 873.688L953.708 874.649L953.719 874.646L953.73 874.643L953.433 873.688ZM959.153 870.718L959.77 871.505L959.77 871.505L959.153 870.718ZM963.223 865.658L962.335 865.198L962.329 865.21L963.223 865.658ZM963.223 851.908L962.351 852.396L962.358 852.409L962.366 852.422L963.223 851.908ZM959.153 846.848L958.463 847.571L958.471 847.579L958.479 847.586L959.153 846.848ZM953.543 842.558L953.003 843.399L953.009 843.403L953.016 843.407L953.543 842.558ZM959.34 833.021C960.757 832.391 962.223 831.46 963.738 830.249L962.489 828.687C961.07 829.822 959.75 830.651 958.527 831.194L959.34 833.021ZM963.719 830.263C965.333 829.034 966.787 827.578 968.085 825.899L966.502 824.676C965.306 826.224 963.974 827.555 962.507 828.672L963.719 830.263ZM968.067 825.921C969.442 824.24 970.554 822.44 971.399 820.52L969.568 819.715C968.799 821.462 967.784 823.108 966.519 824.654L968.067 825.921ZM971.391 820.537C972.328 818.507 972.803 816.421 972.803 814.288H970.803C970.803 816.114 970.399 817.915 969.575 819.699L971.391 820.537ZM972.803 814.288C972.803 813.012 972.604 811.641 972.221 810.183L970.286 810.692C970.636 812.021 970.803 813.217 970.803 814.288H972.803ZM972.232 810.232C971.909 808.696 971.263 807.251 970.31 805.901L968.676 807.054C969.484 808.198 970.012 809.393 970.275 810.644L972.232 810.232ZM970.31 805.901C969.335 804.519 968.042 803.394 966.455 802.521L965.492 804.274C966.838 805.015 967.892 805.943 968.676 807.054L970.31 805.901ZM966.488 802.54C964.827 801.544 962.804 801.078 960.473 801.078V803.078C962.543 803.078 964.186 803.492 965.459 804.255L966.488 802.54ZM960.473 801.078C955.439 801.078 951.321 802.494 948.235 805.422L949.612 806.873C952.246 804.374 955.828 803.078 960.473 803.078V801.078ZM948.226 805.431C945.227 808.351 943.743 812.102 943.743 816.598H945.743C945.743 812.586 947.047 809.371 949.621 806.864L948.226 805.431ZM943.743 816.598C943.743 820.181 945.108 823.358 947.766 826.094L949.201 824.701C946.872 822.304 945.743 819.614 945.743 816.598H943.743ZM947.787 826.115C950.46 828.712 954.052 831.007 958.523 833.02L959.344 831.196C955.015 829.248 951.64 827.07 949.18 824.68L947.787 826.115ZM961.003 835.085C962.926 836.083 964.742 837.258 966.453 838.612L967.694 837.044C965.884 835.611 963.961 834.366 961.924 833.31L961.003 835.085ZM966.468 838.624C968.231 839.964 969.742 841.475 971.003 843.158L972.603 841.958C971.225 840.12 969.582 838.478 967.679 837.031L966.468 838.624ZM971.032 843.195C972.362 844.804 973.368 846.508 974.06 848.307L975.927 847.589C975.152 845.574 974.032 843.685 972.574 841.921L971.032 843.195ZM974.072 848.337C974.829 850.126 975.203 851.938 975.203 853.778H977.203C977.203 851.658 976.771 849.582 975.914 847.558L974.072 848.337ZM975.203 853.778C975.203 857.5 974.328 860.804 972.594 863.716L974.313 864.739C976.246 861.491 977.203 857.829 977.203 853.778H975.203ZM972.6 863.707C970.834 866.603 968.575 869.074 965.817 871.125L967.01 872.73C969.972 870.528 972.406 867.866 974.307 864.748L972.6 863.707ZM965.817 871.125C963.047 873.185 959.993 874.748 956.649 875.815L957.257 877.72C960.808 876.587 964.06 874.924 967.01 872.73L965.817 871.125ZM956.649 875.815C953.289 876.887 950.055 877.418 946.943 877.418V879.418C950.285 879.418 953.724 878.848 957.257 877.72L956.649 875.815ZM946.943 877.418C942.841 877.418 939.362 876.913 936.487 875.931L935.84 877.824C938.978 878.895 942.686 879.418 946.943 879.418V877.418ZM936.494 875.934C933.649 874.938 931.343 873.672 929.549 872.154L928.257 873.681C930.277 875.39 932.812 876.764 935.833 877.822L936.494 875.934ZM929.58 872.182C927.845 870.585 926.577 868.797 925.757 866.815L923.909 867.58C924.85 869.852 926.295 871.877 928.226 873.654L929.58 872.182ZM925.757 866.815C924.923 864.8 924.513 862.803 924.513 860.818H922.513C922.513 863.086 922.983 865.342 923.909 867.58L925.757 866.815ZM924.513 860.818C924.513 857.208 925.221 854.193 926.588 851.733L924.839 850.762C923.273 853.582 922.513 856.948 922.513 860.818H924.513ZM926.583 851.741C928.075 849.113 929.842 846.89 931.881 845.062L930.546 843.573C928.332 845.558 926.432 847.955 924.844 850.754L926.583 851.741ZM931.868 845.073C934.008 843.219 936.245 841.73 938.58 840.597L937.707 838.798C935.202 840.012 932.819 841.603 930.559 843.562L931.868 845.073ZM938.591 840.592C941.062 839.356 943.188 838.421 944.972 837.779L944.295 835.897C942.412 836.574 940.211 837.546 937.696 838.803L938.591 840.592ZM945.111 835.959C941.036 833.743 938.271 831.22 936.706 828.428L934.961 829.407C936.769 832.629 939.871 835.386 944.156 837.716L945.111 835.959ZM936.715 828.445C935.157 825.542 934.413 822.881 934.413 820.448H932.413C932.413 823.294 933.283 826.28 934.952 829.39L936.715 828.445ZM934.413 820.448C934.413 817.147 935.115 814.275 936.488 811.803L934.739 810.832C933.179 813.64 932.413 816.855 932.413 820.448H934.413ZM936.483 811.811C937.954 809.219 939.877 807.053 942.256 805.303L941.071 803.692C938.463 805.609 936.353 807.989 934.744 810.824L936.483 811.811ZM942.26 805.3C944.727 803.467 947.517 802.088 950.637 801.167L950.07 799.249C946.737 800.234 943.733 801.715 941.067 803.695L942.26 805.3ZM950.631 801.168C953.84 800.241 957.12 799.778 960.473 799.778V797.778C956.933 797.778 953.466 798.267 950.076 799.247L950.631 801.168ZM960.473 799.778C966.967 799.778 971.651 801.081 974.699 803.519L975.948 801.957C972.395 799.115 967.18 797.778 960.473 797.778V799.778ZM974.707 803.525C977.831 805.97 979.383 809.195 979.383 813.298H981.383C981.383 808.6 979.563 804.786 975.94 801.95L974.707 803.525ZM979.383 813.298C979.383 816.446 978.685 819.12 977.328 821.359L979.039 822.396C980.615 819.795 981.383 816.75 981.383 813.298H979.383ZM977.324 821.367C975.988 823.617 974.34 825.544 972.379 827.155L973.648 828.7C975.794 826.938 977.592 824.832 979.043 822.388L977.324 821.367ZM972.365 827.166C970.448 828.799 968.434 830.105 966.321 831.091L967.166 832.904C969.453 831.837 971.618 830.43 973.662 828.689L972.365 827.166ZM966.309 831.097C964.202 832.114 962.491 832.825 961.162 833.244L961.765 835.151C963.223 834.691 965.031 833.935 967.178 832.898L966.309 831.097ZM946.936 837.923C945.111 838.836 943.332 839.973 941.597 841.33L942.83 842.905C944.468 841.623 946.135 840.56 947.831 839.712L946.936 837.923ZM941.597 841.33C939.839 842.706 938.275 844.309 936.903 846.138L938.503 847.338C939.772 845.646 941.214 844.17 942.83 842.905L941.597 841.33ZM936.903 846.138C935.513 847.991 934.404 850.14 933.568 852.573L935.459 853.223C936.236 850.962 937.253 849.004 938.503 847.338L936.903 846.138ZM933.571 852.563C932.72 854.962 932.303 857.644 932.303 860.598H934.303C934.303 857.831 934.694 855.38 935.456 853.232L933.571 852.563ZM932.303 860.598C932.303 862.471 932.616 864.305 933.239 866.096L935.128 865.439C934.577 863.857 934.303 862.244 934.303 860.598H932.303ZM933.252 866.132C933.954 867.926 934.932 869.531 936.186 870.942L937.681 869.613C936.588 868.384 935.733 866.983 935.115 865.403L933.252 866.132ZM936.206 870.964C937.54 872.376 939.108 873.512 940.902 874.37L941.765 872.566C940.186 871.81 938.82 870.819 937.66 869.591L936.206 870.964ZM940.949 874.391C942.848 875.182 944.962 875.568 947.273 875.568V873.568C945.185 873.568 943.339 873.22 941.718 872.545L940.949 874.391ZM947.273 875.568C949.423 875.568 951.569 875.26 953.708 874.649L953.159 872.726C951.191 873.288 949.23 873.568 947.273 873.568V875.568ZM953.73 874.643C955.968 873.948 957.984 872.903 959.77 871.505L958.537 869.93C956.95 871.172 955.152 872.107 953.137 872.733L953.73 874.643ZM959.77 871.505C961.581 870.087 963.03 868.281 964.118 866.105L962.329 865.21C961.364 867.141 960.099 868.708 958.537 869.93L959.77 871.505ZM964.112 866.117C965.3 863.82 965.873 861.125 965.873 858.068H963.873C963.873 860.877 963.347 863.242 962.335 865.198L964.112 866.117ZM965.873 858.068C965.873 855.625 965.28 853.392 964.081 851.393L962.366 852.422C963.367 854.09 963.873 855.964 963.873 858.068H965.873ZM964.096 851.419C963.013 849.485 961.587 847.715 959.828 846.109L958.479 847.586C960.094 849.06 961.381 850.664 962.351 852.396L964.096 851.419ZM959.844 846.124C958.175 844.531 956.249 843.06 954.071 841.708L953.016 843.407C955.091 844.695 956.905 846.084 958.463 847.571L959.844 846.124ZM954.084 841.716C952.017 840.387 949.948 839.132 947.88 837.949L946.887 839.686C948.925 840.85 950.964 842.088 953.003 843.399L954.084 841.716Z" fill="black"/>
<defs>
<linearGradient id="paint0_linear_3_21" x1="1008.68" y1="585.881" x2="1183.49" y2="240.211" gradientUnits="userSpaceOnUse">
<stop stop-color="#FE0D10"/>
<stop offset="1" stop-color="#50008A"/>
</linearGradient>
<linearGradient id="paint1_linear_3_21" x1="184.78" y1="690.656" x2="581.967" y2="632.863" gradientUnits="userSpaceOnUse">
<stop stop-color="#FE0D10"/>
<stop offset="1" stop-color="#50008A"/>
</linearGradient>
<linearGradient id="paint2_linear_3_21" x1="558.415" y1="289.741" x2="346.792" y2="614.716" gradientUnits="userSpaceOnUse">
<stop stop-color="#FE0D10"/>
<stop offset="1" stop-color="#50008A"/>
</linearGradient>
</defs>
</svg>
